<?xml version="1.0" encoding="UTF-8"?>
<svg version="1.1" xmlns="http://www.w3.org/2000/svg" width="160" height="160">
<path d="M0 0 C5.11228197 2.44711905 9.41475695 2.18202847 14.96875 1.828125 C25.23408879 1.52718088 32.34725888 3.07390935 40.1171875 10.21484375 C45.87029128 16.32120829 45.87029128 16.32120829 46.65625 20.953125 C47.625625 21.13875 48.595 21.324375 49.59375 21.515625 C57.73894678 23.87344512 64.52962576 30.71462018 68.65625 37.953125 C71.12491522 43.82342926 70.65380551 49.04123264 70.3359375 55.296875 C70.71621159 59.63756465 72.08553873 61.50021392 74.65625 64.953125 C78.32219248 71.87376641 77.66575583 81.37028463 76.65625 88.953125 C74.96083605 93.69257763 72.81905883 97.57428512 68.51171875 100.3203125 C65.84447668 102.66748552 66.01920661 104.59612101 65.71875 108.078125 C64.5147859 117.33938734 61.15779988 123.52806442 53.90234375 129.453125 C49.18162853 132.60574177 43.93823085 134.37144361 38.46875 135.765625 C35.56184056 136.99298676 34.51104864 137.99967009 32.40625 140.265625 C27.30418004 145.72073998 19.8407105 149.69773539 12.328125 150.15625 C11.03390625 150.17171875 9.7396875 150.1871875 8.40625 150.203125 C6.48039062 150.24179687 6.48039062 150.24179687 4.515625 150.28125 C0.65625 149.953125 0.65625 149.953125 -2.84375 148.41015625 C-7.03000747 146.66743969 -9.61741819 146.89079744 -14.09375 147.390625 C-25.3139416 148.37501119 -34.20531889 147.04355457 -43.34375 139.953125 C-46.81995121 136.60356136 -49.80357118 133.57366145 -51.34375 128.953125 C-54.08725346 127.31719957 -54.08725346 127.31719957 -57.40625 125.765625 C-67.78510704 120.45326465 -73.36609022 114.09473017 -76.95703125 103.0703125 C-77.46835406 100.27094923 -77.2442768 97.66760782 -77.09375 94.828125 C-77.02058823 88.91532341 -78.16050624 85.12880463 -81.15234375 80.07421875 C-84.39673833 74.29813266 -84.08866145 67.36645786 -83.34375 60.953125 C-81.44513058 55.32953252 -79.15380437 49.84311216 -74.09375 46.453125 C-70.2951119 42.99981764 -70.56473408 40.02916462 -69.9453125 35.0859375 C-68.45140514 27.30597839 -63.46436602 21.24402198 -57.4140625 16.35546875 C-52.9275637 13.31650069 -48.65968617 11.97256496 -43.28125 11.703125 C-39.77192283 11.37051952 -38.44090444 10.36283948 -36.09375 7.765625 C-27.05382095 -2.06656749 -12.26008171 -6.13071634 0 0 Z " fill="#9E2411" transform="translate(83.34375,6.046875)"/>
<path d="M0 0 C5.11156408 2.44677541 9.41527236 2.18358831 14.96875 1.828125 C23.8751471 1.54553093 30.27173371 2.54527216 37.65625 7.953125 C38.29820313 8.42105469 38.94015625 8.88898437 39.6015625 9.37109375 C43.83903671 13.0251476 45.49832393 17.56926359 46.65625 22.953125 C46.84375 26.015625 46.84375 26.015625 46.65625 27.953125 C47.31625 27.953125 47.97625 27.953125 48.65625 27.953125 C50.62443338 36.56392728 53.11994079 47.56334984 49.32421875 55.8671875 C48.77378906 56.55554687 48.22335938 57.24390625 47.65625 57.953125 C46.66625 57.953125 45.67625 57.953125 44.65625 57.953125 C43.57715159 60.01279544 42.63640032 62.00982433 41.8671875 64.20703125 C39.6537738 70.31977655 39.6537738 70.31977655 36.6875 72.203125 C34.03218388 73.2036789 31.51195604 73.953125 28.65625 73.953125 C28.65625 74.613125 28.65625 75.273125 28.65625 75.953125 C21.94902146 78.77722123 15.00863653 79.03252526 8.15625 76.578125 C4.65625 74.953125 4.65625 74.953125 2.65625 72.953125 C0.99007885 72.91248668 -0.67763095 72.910404 -2.34375 72.953125 C-3.34375 71.953125 -3.34375 71.953125 -3.40625 68.890625 C-3.385625 67.92125 -3.365 66.951875 -3.34375 65.953125 C-4.00375 65.953125 -4.66375 65.953125 -5.34375 65.953125 C-5.67375 64.633125 -6.00375 63.313125 -6.34375 61.953125 C-7.82875 62.448125 -7.82875 62.448125 -9.34375 62.953125 C-11.35250442 62.67741361 -13.35553687 62.35076763 -15.34375 61.953125 C-15.34375 61.293125 -15.34375 60.633125 -15.34375 59.953125 C-16.26607422 59.66308594 -16.26607422 59.66308594 -17.20703125 59.3671875 C-18.01527344 59.10679688 -18.82351562 58.84640625 -19.65625 58.578125 C-20.45675781 58.32289062 -21.25726563 58.06765625 -22.08203125 57.8046875 C-24.34375 56.953125 -24.34375 56.953125 -27.34375 54.953125 C-30.99612789 54.51932801 -34.66838478 54.62890509 -38.34375 54.640625 C-39.8596875 54.61645508 -39.8596875 54.61645508 -41.40625 54.59179688 C-42.375625 54.59115234 -43.345 54.59050781 -44.34375 54.58984375 C-45.6740625 54.58537231 -45.6740625 54.58537231 -47.03125 54.58081055 C-49.81102609 55.02835685 -50.47420741 55.94449534 -52.34375 57.953125 C-53.33375 57.953125 -54.32375 57.953125 -55.34375 57.953125 C-55.34375 59.273125 -55.34375 60.593125 -55.34375 61.953125 C-57.918052 64.94488138 -59.57452307 66.69671602 -63.34375 67.953125 C-64.07698796 69.96820858 -64.07698796 69.96820858 -64.34375 71.953125 C-64.9625 72.035625 -65.58125 72.118125 -66.21875 72.203125 C-68.45704479 72.74591289 -68.45704479 72.74591289 -69.40625 74.640625 C-69.715625 75.40375 -70.025 76.166875 -70.34375 76.953125 C-72.99759615 82.72235577 -72.99759615 82.72235577 -76.34375 84.953125 C-75.68375 86.603125 -75.02375 88.253125 -74.34375 89.953125 C-75.00375 89.953125 -75.66375 89.953125 -76.34375 89.953125 C-77.32789433 88.03900943 -78.30588349 86.1217283 -79.28125 84.203125 C-79.82652344 83.13578125 -80.37179688 82.0684375 -80.93359375 80.96875 C-84.35270247 73.6569718 -84.80585916 65.28380126 -82.21484375 57.609375 C-78.24493461 49.23421419 -78.24493461 49.23421419 -74.09375 46.453125 C-70.2951119 42.99981764 -70.56473408 40.02916462 -69.9453125 35.0859375 C-68.45140514 27.30597839 -63.46436602 21.24402198 -57.4140625 16.35546875 C-52.9275637 13.31650069 -48.65968617 11.97256496 -43.28125 11.703125 C-39.77192283 11.37051952 -38.44090444 10.36283948 -36.09375 7.765625 C-27.05382095 -2.06656749 -12.26008171 -6.13071634 0 0 Z " fill="#0C9D08" transform="translate(83.34375,6.046875)"/>
<path d="M0 0 C0.99 0.99 1.98 1.98 3 3 C3 3.66 3 4.32 3 5 C3.969375 5.185625 4.93875 5.37125 5.9375 5.5625 C14.08269678 7.92032012 20.87337576 14.76149518 25 22 C27.46866522 27.87030426 26.99755551 33.08810764 26.6796875 39.34375 C27.05996159 43.68443965 28.42928873 45.54708892 31 49 C34.66594248 55.92064141 34.00950583 65.41715963 33 73 C31.30458605 77.73945263 29.16280883 81.62116012 24.85546875 84.3671875 C22.18822668 86.71436052 22.36295661 88.64299601 22.0625 92.125 C20.85879568 101.38426403 17.50307834 107.58168897 10.2421875 113.5 C4.45310312 117.37283694 -2.31672634 119.25653731 -9 121 C-9 120.34 -9 119.68 -9 119 C-10.2375 118.95875 -11.475 118.9175 -12.75 118.875 C-24.41733243 117.5196113 -34.30721888 109.92365271 -41.58984375 101.06640625 C-48.40591063 91.10127503 -50.12350752 79.84908514 -49 68 C-48.43933526 65.61630424 -47.7476091 63.33553082 -47 61 C-46.34 61 -45.68 61 -45 61 C-45 59.35 -45 57.7 -45 56 C-40.25 56.75 -40.25 56.75 -38 59 C-30.4897099 61.81635879 -22.80717383 61.64361554 -15 60 C-15 59.34 -15 58.68 -15 58 C-14.37351563 57.81824219 -13.74703125 57.63648438 -13.1015625 57.44921875 C-12.28429687 57.19785156 -11.46703125 56.94648437 -10.625 56.6875 C-9.81289062 56.44386719 -9.00078125 56.20023438 -8.1640625 55.94921875 C-5.66815371 55.08631815 -5.66815371 55.08631815 -4 52 C-3.690625 51.030625 -3.38125 50.06125 -3.0625 49.0625 C-2.04314601 46.12436202 -1.14653394 44.23239529 1 42 C1.99 42 2.98 42 4 42 C4.144375 41.360625 4.28875 40.72125 4.4375 40.0625 C5 38 5 38 6 37 C6.40061216 28.6342754 5.94998365 20.31235695 5 12 C4.34 12 3.68 12 3 12 C2.01 8.04 1.02 4.08 0 0 Z " fill="#925504" transform="translate(127,22)"/>
<path d="M0 0 C0.495 0.99 0.495 0.99 1 2 C3.24797979 2.46900828 3.24797979 2.46900828 5.9375 2.75 C17.44725606 4.70055374 25.97584949 12.22068773 32.7890625 21.4140625 C39.31998391 31.5482509 41.09353489 42.05523427 40 54 C39.24706819 57.20212379 38.26268725 59.94850581 37 63 C36.34 62.67 35.68 62.34 35 62 C35 60.02 35 58.04 35 56 C34.34 56 33.68 56 33 56 C32.505 54.02 32.505 54.02 32 52 C30.515 52.495 30.515 52.495 29 53 C26.99124558 52.72428861 24.98821313 52.39764263 23 52 C23 51.34 23 50.68 23 50 C22.07767578 49.70996094 22.07767578 49.70996094 21.13671875 49.4140625 C20.32847656 49.15367188 19.52023438 48.89328125 18.6875 48.625 C17.88699219 48.36976562 17.08648437 48.11453125 16.26171875 47.8515625 C14 47 14 47 11 45 C7.34762211 44.56620301 3.67536522 44.67578009 0 44.6875 C-1.5159375 44.66333008 -1.5159375 44.66333008 -3.0625 44.63867188 C-4.031875 44.63802734 -5.00125 44.63738281 -6 44.63671875 C-7.3303125 44.63224731 -7.3303125 44.63224731 -8.6875 44.62768555 C-11.46727609 45.07523185 -12.13045741 45.99137034 -14 48 C-14.99 48 -15.98 48 -17 48 C-17 49.32 -17 50.64 -17 52 C-19.574302 54.99175638 -21.23077307 56.74359102 -25 58 C-25.73323796 60.01508358 -25.73323796 60.01508358 -26 62 C-26.61875 62.0825 -27.2375 62.165 -27.875 62.25 C-30.11329479 62.79278789 -30.11329479 62.79278789 -31.0625 64.6875 C-31.371875 65.450625 -31.68125 66.21375 -32 67 C-34.65384615 72.76923077 -34.65384615 72.76923077 -38 75 C-37.34 76.65 -36.68 78.3 -36 80 C-36.66 80 -37.32 80 -38 80 C-38.98414433 78.08588443 -39.96213349 76.1686033 -40.9375 74.25 C-41.48277344 73.18265625 -42.02804688 72.1153125 -42.58984375 71.015625 C-46.00895247 63.7038468 -46.46210916 55.33067626 -43.87109375 47.65625 C-39.90118461 39.28108919 -39.90118461 39.28108919 -35.75 36.5 C-31.9513619 33.04669264 -32.22098408 30.07603962 -31.6015625 25.1328125 C-30.10765514 17.35285339 -25.12061602 11.29089698 -19.0703125 6.40234375 C-13.40967129 2.56806037 -7.67833576 1.70298271 -1 1 C-0.67 0.67 -0.34 0.34 0 0 Z " fill="#183897" transform="translate(45,16)"/>
<path d="M0 0 C8.22608432 0.10163915 13.85853713 1.64687937 20.66357422 6.47070312 C20.66357422 7.13070312 20.66357422 7.79070312 20.66357422 8.47070312 C23.63357422 8.47070312 26.60357422 8.47070312 29.66357422 8.47070312 C30.15857422 10.45070313 30.15857422 10.45070313 30.66357422 12.47070312 C31.32357422 12.47070312 31.98357422 12.47070312 32.66357422 12.47070312 C33.15857422 16.43070313 33.15857422 16.43070313 33.66357422 20.47070312 C32.62458984 20.49648437 31.58560547 20.52226563 30.51513672 20.54882812 C18.61932221 20.97597458 10.27435463 23.23006869 0.47607422 30.29882812 C-1.33642578 31.47070312 -1.33642578 31.47070312 -3.33642578 31.47070312 C-3.33642578 32.13070312 -3.33642578 32.79070312 -3.33642578 33.47070312 C-3.99642578 33.47070312 -4.65642578 33.47070312 -5.33642578 33.47070312 C-5.58392578 34.00695312 -5.83142578 34.54320312 -6.08642578 35.09570312 C-7.33642578 37.47070312 -7.33642578 37.47070312 -9.27392578 40.28320312 C-14.55459323 48.44423463 -15.50293204 55.9051352 -15.39892578 65.34570312 C-15.39441406 66.12945312 -15.38990234 66.91320312 -15.38525391 67.72070312 C-15.37356671 69.63740327 -15.35563486 71.55406361 -15.33642578 73.47070312 C-24.01707927 72.38717823 -30.34685892 67.40757747 -35.82861328 60.74023438 C-40.17854015 54.1928056 -42.03138676 47.2542661 -41.33642578 39.47070312 C-41.00642578 38.48070312 -40.67642578 37.49070313 -40.33642578 36.47070312 C-39.67642578 36.47070312 -39.01642578 36.47070312 -38.33642578 36.47070312 C-39.32642578 34.49070313 -40.31642578 32.51070312 -41.33642578 30.47070312 C-40.71767578 30.42945312 -40.09892578 30.38820313 -39.46142578 30.34570312 C-38.76017578 30.05695313 -38.05892578 29.76820312 -37.33642578 29.47070312 C-36.65616941 27.47528444 -35.99152081 25.47452321 -35.33642578 23.47070312 C-32.77392578 20.72070312 -32.77392578 20.72070312 -30.33642578 18.47070312 C-30.00642578 17.81070313 -29.67642578 17.15070313 -29.33642578 16.47070312 C-28.67642578 16.47070312 -28.01642578 16.47070312 -27.33642578 16.47070312 C-27.33642578 15.81070313 -27.33642578 15.15070313 -27.33642578 14.47070312 C-23.0341002 9.70326126 -23.0341002 9.70326126 -19.33642578 8.47070312 C-19.33642578 7.15070313 -19.33642578 5.83070312 -19.33642578 4.47070312 C-16.89892578 2.78320312 -16.89892578 2.78320312 -14.33642578 1.47070312 C-11.56655085 -1.2991718 -3.71929167 0.04083834 0 0 Z " fill="#3E126C" transform="translate(47.33642578125,59.529296875)"/>
<path d="M0 0 C1.00341431 -0.01522705 1.00341431 -0.01522705 2.02709961 -0.03076172 C7.04899274 0.05713534 10.50779389 1.12320749 14.875 3.4375 C15.535 4.4275 16.195 5.4175 16.875 6.4375 C18.23625 6.5303125 18.23625 6.5303125 19.625 6.625 C23.82956445 7.67614111 24.96722178 9.46505986 27.48046875 12.84375 C31.71533543 20.72036478 32.29861435 27.90109349 32.125 36.75 C32.11984375 37.82056641 32.1146875 38.89113281 32.109375 39.99414062 C32.02409602 48.50604873 32.02409602 48.50604873 30.875 52.4375 C30.215 52.4375 29.555 52.4375 28.875 52.4375 C28.6275 53.45199219 28.38 54.46648438 28.125 55.51171875 C26.98260925 59.50505823 25.10028226 62.73618114 22.875 66.25 C22.34132813 67.10754883 22.34132813 67.10754883 21.796875 67.98242188 C20.29848372 70.36139758 18.86912624 72.44337376 16.875 74.4375 C14.25 74.5625 14.25 74.5625 11.875 74.4375 C12.04 73.40625 12.205 72.375 12.375 71.3125 C14.25951799 55.6543726 12.50547906 43.15590822 2.875 30.4375 C-5.27963891 20.6884714 -13.59465904 16.85802935 -26.125 15.4375 C-23.80390064 8.81059312 -19.26134119 5.35540624 -13.1875 2.0625 C-8.87174355 0.28717162 -4.61612494 0.04981239 0 0 Z " fill="#164C3A" transform="translate(71.125,3.5625)"/>
<path d="M0 0 C-0.3125 1.875 -0.3125 1.875 -1 4 C-4 6 -4 6 -7 6 C-7 6.66 -7 7.32 -7 8 C-8.375 9.625 -8.375 9.625 -10 11 C-10.66 11 -11.32 11 -12 11 C-12.20625 11.556875 -12.4125 12.11375 -12.625 12.6875 C-14.50327969 15.84642493 -17.18848805 17.66704327 -20 20 C-20.33 20.99 -20.66 21.98 -21 23 C-21.66 23.33 -22.32 23.66 -23 24 C-26.53757761 32.46536117 -25.39357917 42.11593279 -24 51 C-23.34 51 -22.68 51 -22 51 C-21.34 49.68 -20.68 48.36 -20 47 C-16 53 -16 53 -15.1875 56.875 C-14.22266592 61.1156014 -12.24193297 63.09057297 -9 66 C-8.67 66.99 -8.34 67.98 -8 69 C-8.99 69 -9.98 69 -11 69 C-11 69.66 -11 70.32 -11 71 C-8.03 71 -5.06 71 -2 71 C-2.33 71.66 -2.66 72.32 -3 73 C-12.36637892 75.1428616 -21.86873839 74.02843875 -30.25 69.375 C-35.72807606 65.81905589 -40.89475599 61.31573202 -43 55 C-43.66 54.67 -44.32 54.34 -45 54 C-44.835 53.2575 -44.67 52.515 -44.5 51.75 C-44.05738147 48.43036104 -43.99916256 45.46077206 -44.0625 42.125 C-44.1154127 31.38372123 -40.62686997 20.88986548 -33 13 C-32.34 13 -31.68 13 -31 13 C-31 12.34 -31 11.68 -31 11 C-21.13051833 3.134474 -12.56106052 -0.70803473 0 0 Z " fill="#9D187C" transform="translate(75,80)"/>
<path d="M0 0 C0.99 0.99 1.98 1.98 3 3 C3 3.66 3 4.32 3 5 C3.969375 5.185625 4.93875 5.37125 5.9375 5.5625 C14.08269678 7.92032012 20.87337576 14.76149518 25 22 C26.95256732 26.68616157 27.21552015 30.63345832 27.125 35.6875 C27.10695313 36.99074219 27.08890625 38.29398438 27.0703125 39.63671875 C27.04710937 40.74660156 27.02390625 41.85648438 27 43 C27 43.99 27 44.98 27 46 C26.34 46 25.68 46 25 46 C23.5839225 47.8529723 23.5839225 47.8529723 22.1875 50.1875 C16.6587209 58.693314 9.31476103 65.33683019 -0.78051758 67.62719727 C-12.78409086 69.64341731 -27.64719621 69.4300916 -38.12109375 62.62109375 C-39.8125 61.25 -39.8125 61.25 -42 59 C-39 58 -39 58 -35.4375 59.4375 C-28.82722685 62.10352177 -21.87258412 61.44685982 -15 60 C-15 59.34 -15 58.68 -15 58 C-14.37351562 57.81824219 -13.74703125 57.63648438 -13.1015625 57.44921875 C-11.87566406 57.07216797 -11.87566406 57.07216797 -10.625 56.6875 C-9.81289062 56.44386719 -9.00078125 56.20023438 -8.1640625 55.94921875 C-5.66815371 55.08631815 -5.66815371 55.08631815 -4 52 C-3.690625 51.030625 -3.38125 50.06125 -3.0625 49.0625 C-2.04314601 46.12436202 -1.14653394 44.23239529 1 42 C1.99 42 2.98 42 4 42 C4.144375 41.360625 4.28875 40.72125 4.4375 40.0625 C5 38 5 38 6 37 C6.40061216 28.6342754 5.94998365 20.31235695 5 12 C4.34 12 3.68 12 3 12 C2.01 8.04 1.02 4.08 0 0 Z " fill="#BBE93E" transform="translate(127,22)"/>
<path d="M0 0 C0.495 0.99 0.495 0.99 1 2 C3.24797979 2.46900828 3.24797979 2.46900828 5.9375 2.75 C17.44725606 4.70055374 25.97584949 12.22068773 32.7890625 21.4140625 C39.14333958 31.27414763 41.56890148 42.31014584 40 54 C38.4765625 55.90625 38.4765625 55.90625 37 57 C34.73753701 53.04332055 32.85380074 49.61262296 32.625 45 C32.14239903 39.28735131 28.47519136 35.15671302 24.26953125 31.4921875 C23.45548828 30.84636719 23.45548828 30.84636719 22.625 30.1875 C21.75875 29.465625 20.8925 28.74375 20 28 C20 27.01 20 26.02 20 25 C19.443125 24.87625 18.88625 24.7525 18.3125 24.625 C16 24 16 24 13.5 22.875 C11.11375501 21.77951858 11.11375501 21.77951858 9.0703125 22.5 C6.23864538 23.18387432 4.05238941 22.3141578 1.3046875 21.546875 C-2.73902362 20.58735033 -6.86418086 20.32205149 -11 20 C-11 20.66 -11 21.32 -11 22 C-12.63064764 23.05771739 -14.30280873 24.05273046 -16 25 C-16.99 25.66 -17.98 26.32 -19 27 C-19.99 27.33 -20.98 27.66 -22 28 C-22.99 28.7734375 -22.99 28.7734375 -24 29.5625 C-26 31 -26 31 -29 31 C-29 31.66 -29 32.32 -29 33 C-29.66 33 -30.32 33 -31 33 C-31 33.66 -31 34.32 -31 35 C-31.66 34.67 -32.32 34.34 -33 34 C-31.93987971 23.36224126 -29.0102593 15.48209438 -21.125 8.0625 C-14.91286752 3.04319144 -8.77594422 1.81852044 -1 1 C-0.67 0.67 -0.34 0.34 0 0 Z " fill="#23959F" transform="translate(45,16)"/>
<path d="M0 0 C3.2630344 2.81807516 4.71254681 5.71988609 5.25537109 10.02563477 C5.85688019 19.06481764 6.33467845 27.62416404 0.6953125 35.19140625 C-5.33976473 41.62974901 -15.3483508 45.70071316 -24.171875 46.16796875 C-30.84630707 46.20440124 -36.65763883 46.11412039 -43 44 C-43.77601562 43.75507812 -44.55203125 43.51015625 -45.3515625 43.2578125 C-54.06453851 40.20961966 -61.74817941 34.66190265 -67 27 C-67 25.68 -67 24.36 -67 23 C-52.3 27.7 -52.3 27.7 -50 30 C-37.23084628 31.40654811 -24.05194102 31.1389565 -13 24 C-10.6593791 21.38786708 -9.49690449 19.21557261 -8 16 C-7.34 16 -6.68 16 -6 16 C-5.71125 15.236875 -5.4225 14.47375 -5.125 13.6875 C-4 11 -4 11 -2 8 C-1.33841957 5.95415921 -1.33841957 5.95415921 -0.875 3.8125 C-0.58625 2.554375 -0.2975 1.29625 0 0 Z " fill="#F5E308" transform="translate(155,68)"/>
<path d="M0 0 C0.66 0 1.32 0 2 0 C3.27253436 3.64793184 4.32829194 7.1936543 5 11 C5.66 11 6.32 11 7 11 C7.37125 11.886875 7.7425 12.77375 8.125 13.6875 C9.78333696 16.61722863 10.67496841 17.76017002 13.1875 19.75 C14.5796875 20.86375 14.5796875 20.86375 16 22 C16 22.66 16 23.32 16 24 C16.53625 24.226875 17.0725 24.45375 17.625 24.6875 C20 26 20 26 22.58203125 28.5 C26.42658913 31.73484052 30.17850554 31.98856409 35.0625 32.3125 C36.31027222 32.41957275 36.31027222 32.41957275 37.58325195 32.52880859 C44.39156896 33.07064016 51.17221168 33.22064666 58 33 C58 32.34 58 31.68 58 31 C61.08809695 29.23537317 62.23312136 29 66 29 C66 29.66 66 30.32 66 31 C66.66 31 67.32 31 68 31 C67.505 27.04 67.505 27.04 67 23 C67.66 23 68.32 23 69 23 C69 22.34 69 21.68 69 21 C69.66 21 70.32 21 71 21 C70.56855606 30.06032279 67.96412175 36.49749878 61.3125 42.8125 C55.12160741 47.85866151 47.61845914 50.01257588 40 52 C40 51.34 40 50.68 40 50 C38.7625 49.95875 37.525 49.9175 36.25 49.875 C24.58266757 48.5196113 14.69278112 40.92365271 7.41015625 32.06640625 C0.6665 22.20713981 -0.62209231 11.68151107 0 0 Z " fill="#E58D10" transform="translate(78,91)"/>
<path d="M0 0 C-0.33 1.32 -0.66 2.64 -1 4 C-1.66 4 -2.32 4 -3 4 C-5.31302589 18.84507601 -4.89170984 32.34367595 4.25 44.9375 C12.59664862 54.65719038 22.52824986 59.75921274 35 62 C35 62.66 35 63.32 35 64 C30.05 64.33 25.1 64.66 20 65 C19.67 64.34 19.34 63.68 19 63 C17.02 63 15.04 63 13 63 C12.67 61.35 12.34 59.7 12 58 C10.88625 57.71125 9.7725 57.4225 8.625 57.125 C5 56 5 56 3 54 C2.13375 53.62875 1.2675 53.2575 0.375 52.875 C-2 51 -2 51 -2.32421875 49.02734375 C-2.31357329 47.01535274 -2.16436836 45.00529404 -2 43 C-2.66 42.67 -3.32 42.34 -4 42 C-5.24040267 37.71548987 -6.0676941 33.36488671 -7 29 C-7.66 33.62 -8.32 38.24 -9 43 C-9.33 41.68 -9.66 40.36 -10 39 C-10.66 39 -11.32 39 -12 39 C-12.4179602 28.22591491 -11.3197327 18.50783681 -9 8 C-12.9093851 10.04745762 -14.92997928 11.86720438 -17.125 15.6875 C-17.60195312 16.49574219 -18.07890625 17.30398437 -18.5703125 18.13671875 C-22.06379937 25.13323753 -23.55854687 30.95520981 -23.5 38.8125 C-23.49250732 40.13362793 -23.49250732 40.13362793 -23.48486328 41.48144531 C-23.19440247 52.34267659 -18.79017175 59.77738105 -12 68 C-11.21625 68.99 -10.4325 69.98 -9.625 71 C-8.820625 71.99 -8.820625 71.99 -8 73 C-11.96 73 -15.92 73 -20 73 C-19.67 72.01 -19.34 71.02 -19 70 C-18.01 70 -17.02 70 -16 70 C-18.8795976 65.42251491 -18.8795976 65.42251491 -23 62 C-23.84375 59.94140625 -23.84375 59.94140625 -24.5 57.5625 C-25.43385981 54.18837558 -26.33141241 52.30536317 -29 50 C-29.33 50.66 -29.66 51.32 -30 52 C-30.66 52 -31.32 52 -32 52 C-34.49827655 44.0367435 -35.88360588 34.57723505 -32.5 26.6875 C-32.005 25.800625 -31.51 24.91375 -31 24 C-30.34 24 -29.68 24 -29 24 C-28.9071875 23.40445313 -28.814375 22.80890625 -28.71875 22.1953125 C-27.83342903 19.49123431 -26.72039762 18.61309813 -24.5 16.875 C-21.8119616 14.80112319 -21.8119616 14.80112319 -20 12 C-19.34 12 -18.68 12 -18 12 C-17.67 11.01 -17.34 10.02 -17 9 C-16.34 9 -15.68 9 -15 9 C-15 8.34 -15 7.68 -15 7 C-13.5459375 6.62875 -13.5459375 6.62875 -12.0625 6.25 C-11.051875 5.8375 -10.04125 5.425 -9 5 C-8.03122943 2.96756452 -8.03122943 2.96756452 -8 1 C-2.25 0 -2.25 0 0 0 Z " fill="#56032E" transform="translate(83,79)"/>
<path d="M0 0 C7.62890496 -0.28139404 13.7419508 0.58065027 21 3 C21.33 2.34 21.66 1.68 22 1 C27.7045887 3.14071567 31.09277779 4.4498485 34 10 C35.13474997 11.03607606 36.30546191 12.03346503 37.5 13 C42.97658562 17.56574296 44.30564311 21.73870492 45.52734375 28.6171875 C46.04758998 31.23991644 46.86971131 33.57795282 48 36 C48.66 36 49.32 36 50 36 C49.34 38.31 48.68 40.62 48 43 C47.34 42.67 46.68 42.34 46 42 C46 40.02 46 38.04 46 36 C45.34 36 44.68 36 44 36 C43.8453125 35.0409375 43.8453125 35.0409375 43.6875 34.0625 C43.460625 33.381875 43.23375 32.70125 43 32 C42.01 31.67 41.02 31.34 40 31 C39.505 29.989375 39.01 28.97875 38.5 27.9375 C36.01987749 23.22914241 31.98266674 20.8124854 27.65625 17.89453125 C25 16 25 16 23.34375 13.88671875 C16.73169802 8.56401691 5.86494943 9.74070642 -2.1875 9.875 C-3.23486328 9.88402344 -4.28222656 9.89304687 -5.36132812 9.90234375 C-7.90780514 9.92559925 -10.45377031 9.95827431 -13 10 C-13.33 10.99 -13.66 11.98 -14 13 C-17 15 -17 15 -20 15 C-20 14.34 -20 13.68 -20 13 C-19.34 13 -18.68 13 -18 13 C-18 12.34 -18 11.68 -18 11 C-17.030625 10.54625 -16.06125 10.0925 -15.0625 9.625 C-11.92920418 8.34213779 -11.92920418 8.34213779 -11 6 C-10.21625 5.855625 -9.4325 5.71125 -8.625 5.5625 C-5.67720678 4.93083003 -5.01514032 4.1067376 -3 2 C-2.01 2 -1.02 2 0 2 C0 1.34 0 0.68 0 0 Z " fill="#14616F" transform="translate(34,36)"/>
<path d="M0 0 C8.22608432 0.10163915 13.85853713 1.64687937 20.66357422 6.47070312 C20.66357422 7.13070312 20.66357422 7.79070312 20.66357422 8.47070312 C23.63357422 8.47070312 26.60357422 8.47070312 29.66357422 8.47070312 C30.15857422 10.45070313 30.15857422 10.45070313 30.66357422 12.47070312 C31.32357422 12.47070312 31.98357422 12.47070312 32.66357422 12.47070312 C33.15857422 16.43070313 33.15857422 16.43070313 33.66357422 20.47070312 C30.01040751 19.22093557 28.88291586 18.79971559 26.66357422 15.47070312 C24.24750005 14.67272095 24.24750005 14.67272095 21.53857422 14.28320312 C20.62849609 14.12464844 19.71841797 13.96609375 18.78076172 13.80273438 C17.73275391 13.63837891 17.73275391 13.63837891 16.66357422 13.47070312 C16.16857422 11.98570313 16.16857422 11.98570313 15.66357422 10.47070312 C11.51798329 10.3534304 7.3728256 10.2830938 3.22607422 10.22070312 C2.06140625 10.1871875 0.89673828 10.15367188 -0.30322266 10.11914062 C-9.5940986 10.0144547 -15.38742143 12.10942459 -23.21142578 16.78320312 C-24.24267578 17.34007813 -25.27392578 17.89695312 -26.33642578 18.47070312 C-27.32642578 18.14070313 -28.31642578 17.81070313 -29.33642578 17.47070312 C-28.67642578 17.14070313 -28.01642578 16.81070313 -27.33642578 16.47070312 C-27.33642578 15.81070313 -27.33642578 15.15070313 -27.33642578 14.47070312 C-23.0341002 9.70326126 -23.0341002 9.70326126 -19.33642578 8.47070312 C-19.33642578 7.15070313 -19.33642578 5.83070312 -19.33642578 4.47070312 C-16.89892578 2.78320312 -16.89892578 2.78320312 -14.33642578 1.47070312 C-11.56655085 -1.2991718 -3.71929167 0.04083834 0 0 Z " fill="#0C1B62" transform="translate(47.33642578125,59.529296875)"/>
<path d="M0 0 C0.99 0.66 1.98 1.32 3 2 C1.6965899 10.67796726 -0.75168617 15.75168617 -7 22 C-7.40476563 22.79664062 -7.80953125 23.59328125 -8.2265625 24.4140625 C-11.88823477 29.75332911 -18.8621743 31.69262109 -25 33 C-28.90271374 33.43408988 -32.76240396 33.55571532 -36.6875 33.5625 C-37.64374268 33.56483643 -38.59998535 33.56717285 -39.58520508 33.56958008 C-44.58460116 33.44970865 -47.05328773 33.21367214 -51 30 C-53.22582779 29.04568978 -55.47870514 28.1528791 -57.75 27.3125 C-58.92046875 26.87550781 -60.0909375 26.43851563 -61.296875 25.98828125 C-62.18890625 25.66214844 -63.0809375 25.33601563 -64 25 C-64.33 25.99 -64.66 26.98 -65 28 C-67.15305957 24.14243493 -68.39253254 21.44870215 -68 17 C-67.05125 17.556875 -66.1025 18.11375 -65.125 18.6875 C-56.4190464 23.66233063 -49.46947868 27.17426586 -39.3125 27.125 C-38.14557617 27.13080078 -38.14557617 27.13080078 -36.95507812 27.13671875 C-31.88478324 27.12826121 -27.018732 26.72269741 -22 26 C-22 25.34 -22 24.68 -22 24 C-21.21625 23.938125 -20.4325 23.87625 -19.625 23.8125 C-18.75875 23.544375 -17.8925 23.27625 -17 23 C-16.28752268 21.3523962 -15.62599617 19.68236471 -15 18 C-10.67567568 14 -10.67567568 14 -8 14 C-7.60167969 13.17242187 -7.60167969 13.17242187 -7.1953125 12.328125 C-5.86117291 9.72960475 -4.38741369 7.24877045 -2.875 4.75 C-2.33617187 3.85796875 -1.79734375 2.9659375 -1.2421875 2.046875 C-0.83226562 1.37140625 -0.42234375 0.6959375 0 0 Z " fill="#B9A104" transform="translate(152,66)"/>
<path d="M0 0 C0.66 0 1.32 0 2 0 C1.67 1.32 1.34 2.64 1 4 C0.34 4 -0.32 4 -1 4 C-3.31302589 18.84507601 -2.89170984 32.34367595 6.25 44.9375 C14.59664862 54.65719038 24.52824986 59.75921274 37 62 C37 62.66 37 63.32 37 64 C32.05 64.33 27.1 64.66 22 65 C21.67 64.34 21.34 63.68 21 63 C19.02 63 17.04 63 15 63 C14.505 60.525 14.505 60.525 14 58 C12.88625 57.71125 11.7725 57.4225 10.625 57.125 C7 56 7 56 5 54 C4.13375 53.62875 3.2675 53.2575 2.375 52.875 C0 51 0 51 -0.32421875 49.02734375 C-0.31357329 47.01535274 -0.16436836 45.00529404 0 43 C-0.66 42.67 -1.32 42.34 -2 42 C-3.24040267 37.71548987 -4.0676941 33.36488671 -5 29 C-5.66 33.62 -6.32 38.24 -7 43 C-7.33 41.68 -7.66 40.36 -8 39 C-8.66 39 -9.32 39 -10 39 C-10.32499327 30.73072676 -10.06624566 22.9053198 -8.625 14.75 C-8.49891357 14.02369385 -8.37282715 13.2973877 -8.24291992 12.54907227 C-7.59424353 9.1268288 -6.95758304 6.93637455 -5 4 C-4.01 3.67 -3.02 3.34 -2 3 C-1.34 2.01 -0.68 1.02 0 0 Z " fill="#5E1204" transform="translate(81,79)"/>
<path d="M0 0 C0.99 0 1.98 0 3 0 C3.33 1.32 3.66 2.64 4 4 C6.475 4.495 6.475 4.495 9 5 C10.70884158 14.05410416 11.70245176 23.77070943 7 32 C6.34 32 5.68 32 5 32 C5.11085938 32.74121094 5.22171875 33.48242188 5.3359375 34.24609375 C5 37 5 37 2.6640625 39.09765625 C1.15972656 40.07025391 1.15972656 40.07025391 -0.375 41.0625 C-4.06886944 43.47258278 -6.24257942 44.95104081 -8 49 C-10.70605494 50.49545142 -12.2388577 51.12342848 -15.3125 50.625 C-15.869375 50.41875 -16.42625 50.2125 -17 50 C-15.948125 49.071875 -15.948125 49.071875 -14.875 48.125 C-9.34245473 42.59245473 -5.82242462 35.21286291 -3 28 C-2.34 28 -1.68 28 -1 28 C-0.67 18.76 -0.34 9.52 0 0 Z " fill="#016502" transform="translate(103,28)"/>
<path d="M0 0 C0.33 0 0.66 0 1 0 C2.96818338 8.61080228 5.46369079 19.61022484 1.66796875 27.9140625 C1.11753906 28.60242188 0.56710938 29.29078125 0 30 C-0.99 30 -1.98 30 -3 30 C-4.07909841 32.05967044 -5.01984968 34.05669933 -5.7890625 36.25390625 C-8.0024762 42.36665155 -8.0024762 42.36665155 -10.96875 44.25 C-13.62406612 45.2505539 -16.14429396 46 -19 46 C-19 46.66 -19 47.32 -19 48 C-25.79367802 50.86049601 -32.72639538 51.08086095 -39.625 48.5 C-40.73875 48.005 -41.8525 47.51 -43 47 C-40.03039305 45.02026203 -38.71680218 44.6487388 -35.3125 44.125 C-30.97176459 43.33404967 -27.59873038 41.99157251 -23.75390625 39.87109375 C-22 39 -22 39 -19.125 38.5 C-18.42375 38.335 -17.7225 38.17 -17 38 C-15.87483915 36.16715557 -15.87483915 36.16715557 -15 34 C-12.94491109 31.66145055 -11.3223653 30.15562463 -8.5078125 28.796875 C-5.13389099 26.37942345 -4.7462441 24.27298717 -3.6875 20.3125 C-3.36136719 19.13300781 -3.03523438 17.95351563 -2.69921875 16.73828125 C-2.46847656 15.83464844 -2.23773438 14.93101563 -2 14 C-1.34 14 -0.68 14 0 14 C0 9.38 0 4.76 0 0 Z " fill="#7DA122" transform="translate(131,34)"/>
<path d="M0 0 C2.76222843 2.38556092 3.98658817 4.49203597 5 8 C5.15512216 10.69212002 5.09156216 13.29891626 5 16 C4.01 15.505 4.01 15.505 3 15 C3 14.01 3 13.02 3 12 C2.34 12 1.68 12 1 12 C0.91105469 12.80824219 0.91105469 12.80824219 0.8203125 13.6328125 C-0.36254285 17.04619508 -2.68152211 19.30310869 -5.125 21.875 C-5.87595947 22.67127808 -5.87595947 22.67127808 -6.64208984 23.48364258 C-8.08474065 24.9991005 -9.54088764 26.50041515 -11 28 C-11.6496875 28.68707031 -12.299375 29.37414062 -12.96875 30.08203125 C-16.77050112 33.76721925 -19.79479091 34.70342618 -25.08203125 34.89453125 C-27.08576995 34.87728965 -27.08576995 34.87728965 -29 36 C-36.53135473 36.57116094 -43.65242567 35.59173757 -51 34 C-51 33.34 -51 32.68 -51 32 C-51.99 32 -52.98 32 -54 32 C-54 31.34 -54 30.68 -54 30 C-55.36125 29.7834375 -55.36125 29.7834375 -56.75 29.5625 C-57.8225 29.376875 -58.895 29.19125 -60 29 C-61.0828125 28.87625 -61.0828125 28.87625 -62.1875 28.75 C-64.93399377 27.61351982 -65.68468927 25.56485592 -67 23 C-52.3 27.7 -52.3 27.7 -50 30 C-37.23084628 31.40654811 -24.05194102 31.1389565 -13 24 C-10.6593791 21.38786708 -9.49690449 19.21557261 -8 16 C-7.34 16 -6.68 16 -6 16 C-5.71125 15.236875 -5.4225 14.47375 -5.125 13.6875 C-4 11 -4 11 -2 8 C-1.33841957 5.95415921 -1.33841957 5.95415921 -0.875 3.8125 C-0.58625 2.554375 -0.2975 1.29625 0 0 Z " fill="#DFC402" transform="translate(155,68)"/>
<path d="M0 0 C3.47819559 3.14786416 4.74154692 6.54573843 6 11 C6.04125 12.11375 6.0825 13.2275 6.125 14.375 C7.52754185 20.18553052 11.66802915 24.01749907 16 28 C17.31863776 28.69528173 18.65001636 29.36772918 20 30 C20.763125 30.845625 21.52625 31.69125 22.3125 32.5625 C27.46267376 37.23358783 34.50375436 36.13576792 41.1328125 36.23046875 C44.14667927 35.9882097 46.23704842 35.17831759 49 34 C51.1328125 33.65625 51.1328125 33.65625 53.125 33.5 C57.05416359 33.28431262 57.05416359 33.28431262 60 31 C58.02 30.67 56.04 30.34 54 30 C57.01970788 28.43370292 60.08650414 27.12374836 63.25 25.875 C64.14203125 25.52179688 65.0340625 25.16859375 65.953125 24.8046875 C66.62859375 24.53914063 67.3040625 24.27359375 68 24 C68.495 25.98 68.495 25.98 69 28 C68.34 28 67.68 28 67 28 C67 28.66 67 29.32 67 30 C66.34 30 65.68 30 65 30 C65.495 30.99 65.495 30.99 66 32 C66.039992 33.99960012 66.04346799 36.00047242 66 38 C65.34 38 64.68 38 64 38 C64 37.34 64 36.68 64 36 C62.8553125 36.495 62.8553125 36.495 61.6875 37 C59 38 59 38 56 38 C56 38.66 56 39.32 56 40 C29.42294322 42.61529548 29.42294322 42.61529548 21 37 C19.33333333 35.33333333 17.66666667 33.66666667 16 32 C14.90346493 31.09484133 13.79932369 30.19881228 12.6875 29.3125 C11.800625 28.549375 10.91375 27.78625 10 27 C10 26.34 10 25.68 10 25 C9.01 24.67 8.02 24.34 7 24 C5.8125 20.9375 5.8125 20.9375 5 18 C4.34 18 3.68 18 3 18 C0.84694043 14.14243493 -0.39253254 11.44870215 0 7 C-0.66 6.67 -1.32 6.34 -2 6 C-1.34 4.02 -0.68 2.04 0 0 Z " fill="#B96E09" transform="translate(80,84)"/>
<path d="M0 0 C0.99 0.99 1.98 1.98 3 3 C3 3.66 3 4.32 3 5 C3.66 5 4.32 5 5 5 C5 5.66 5 6.32 5 7 C6.32 7.33 7.64 7.66 9 8 C9.495 22.355 9.495 22.355 10 37 C10.99 36.34 11.98 35.68 13 35 C12.46968862 39.5076467 10.74778884 42.41954788 8 46 C7.34 46 6.68 46 6 46 C5.7525 46.7425 5.505 47.485 5.25 48.25 C3.8864843 51.24973455 2.54127785 52.92077267 0 55 C-0.99 55 -1.98 55 -3 55 C-3 55.66 -3 56.32 -3 57 C-5.70879335 58.35439668 -8.00933268 58.06501451 -11 58 C-11.16886719 58.63550781 -11.33773437 59.27101562 -11.51171875 59.92578125 C-13 62 -13 62 -16.51953125 62.79296875 C-17.94867721 62.94319526 -19.37997183 63.07396927 -20.8125 63.1875 C-26.32639784 63.65817526 -26.32639784 63.65817526 -31.7421875 64.734375 C-34 65 -34 65 -36.23828125 63.78515625 C-36.92277344 63.21667969 -37.60726562 62.64820313 -38.3125 62.0625 C-39.00988281 61.49660156 -39.70726563 60.93070313 -40.42578125 60.34765625 C-41.20501953 59.68056641 -41.20501953 59.68056641 -42 59 C-39 58 -39 58 -35.4375 59.4375 C-28.82722685 62.10352177 -21.87258412 61.44685982 -15 60 C-15 59.34 -15 58.68 -15 58 C-14.37351562 57.81824219 -13.74703125 57.63648438 -13.1015625 57.44921875 C-11.87566406 57.07216797 -11.87566406 57.07216797 -10.625 56.6875 C-9.81289062 56.44386719 -9.00078125 56.20023438 -8.1640625 55.94921875 C-5.66815371 55.08631815 -5.66815371 55.08631815 -4 52 C-3.690625 51.030625 -3.38125 50.06125 -3.0625 49.0625 C-2.04314601 46.12436202 -1.14653394 44.23239529 1 42 C1.99 42 2.98 42 4 42 C4.144375 41.360625 4.28875 40.72125 4.4375 40.0625 C5 38 5 38 6 37 C6.40061216 28.6342754 5.94998365 20.31235695 5 12 C4.34 12 3.68 12 3 12 C2.01 8.04 1.02 4.08 0 0 Z " fill="#A3CE2E" transform="translate(127,22)"/>
<path d="M0 0 C0.66 0 1.32 0 2 0 C1.88490339 1.41750563 1.75746342 2.83401169 1.625 4.25 C1.55539063 5.03890625 1.48578125 5.8278125 1.4140625 6.640625 C0.51616422 11.75695107 -2.20511188 14.5665298 -6 18 C-8.3125 19.3125 -8.3125 19.3125 -10 20 C-10.39477539 19.51265381 -10.78955078 19.02530762 -11.19628906 18.52319336 C-13.53722642 16.54632436 -14.82501742 16.63146042 -17.859375 16.62890625 C-18.81070313 16.61150391 -19.76203125 16.59410156 -20.7421875 16.57617188 C-22.7317571 16.56712838 -24.72134778 16.56185927 -26.7109375 16.56054688 C-33.02017763 16.4372531 -36.80614279 15.64875723 -42 12 C-42 11.67 -42 11.34 -42 11 C-37.52156707 10.92891376 -33.19243621 10.91481824 -28.75 11.5 C-22.8492388 12.24414573 -16.93667919 12.08258132 -11 12 C-11 11.34 -11 10.68 -11 10 C-7.91190305 8.23537317 -6.76687864 8 -3 8 C-3 8.66 -3 9.32 -3 10 C-2.34 10 -1.68 10 -1 10 C-1.495 6.04 -1.495 6.04 -2 2 C-1.34 2 -0.68 2 0 2 C0 1.34 0 0.68 0 0 Z " fill="#CC7B0A" transform="translate(147,112)"/>
<path d="M0 0 C8.22608432 0.10163915 13.85853713 1.64687937 20.66357422 6.47070312 C20.66357422 7.13070312 20.66357422 7.79070312 20.66357422 8.47070312 C23.63357422 8.47070312 26.60357422 8.47070312 29.66357422 8.47070312 C30.15857422 10.45070313 30.15857422 10.45070313 30.66357422 12.47070312 C31.32357422 12.47070312 31.98357422 12.47070312 32.66357422 12.47070312 C32.66357422 14.12070313 32.66357422 15.77070312 32.66357422 17.47070312 C31.34357422 16.81070313 30.02357422 16.15070313 28.66357422 15.47070312 C28.66357422 14.81070313 28.66357422 14.15070313 28.66357422 13.47070312 C23.71357422 12.48070313 23.71357422 12.48070313 18.66357422 11.47070312 C18.66357422 10.48070313 18.66357422 9.49070312 18.66357422 8.47070312 C17.92107422 8.34695312 17.17857422 8.22320312 16.41357422 8.09570312 C13.66357422 7.47070312 13.66357422 7.47070312 11.76977539 6.44824219 C9.40158313 5.34910671 7.8123922 5.21279316 5.21435547 5.20507812 C4.36550781 5.2025 3.51666016 5.19992188 2.64208984 5.19726562 C1.32241211 5.20886719 1.32241211 5.20886719 -0.02392578 5.22070312 C-0.884375 5.21296875 -1.74482422 5.20523438 -2.63134766 5.19726562 C-8.48122275 5.21489901 -13.6682709 6.02351464 -19.33642578 7.47070312 C-19.33642578 6.48070313 -19.33642578 5.49070312 -19.33642578 4.47070312 C-16.89892578 2.84570312 -16.89892578 2.84570312 -14.33642578 1.47070312 C-11.56655085 -1.2991718 -3.71929167 0.04083834 0 0 Z " fill="#0F2B82" transform="translate(47.33642578125,59.529296875)"/>
<path d="M0 0 C1.65 0 3.3 0 5 0 C4.67 0.99 4.34 1.98 4 3 C3.01 3 2.02 3 1 3 C0.773125 3.598125 0.54625 4.19625 0.3125 4.8125 C-1 7 -1 7 -3.39453125 8.3203125 C-7.12997941 10.72847249 -8.37539029 13.85409315 -10.375 17.72265625 C-12 20 -12 20 -14.4375 20.80859375 C-17.86378622 22.40160792 -18.71708445 24.21680413 -20.23632812 27.59765625 C-21.63608572 32.00098577 -21.68037507 36.41108427 -21.75 41 C-21.77964844 41.96550781 -21.80929688 42.93101563 -21.83984375 43.92578125 C-21.90988791 46.28393466 -21.96290292 48.64113746 -22 51 C-22.66 51 -23.32 51 -24 51 C-26.49827655 43.0367435 -27.88360588 33.57723505 -24.5 25.6875 C-24.005 24.800625 -23.51 23.91375 -23 23 C-22.34 23 -21.68 23 -21 23 C-20.9071875 22.40445313 -20.814375 21.80890625 -20.71875 21.1953125 C-19.83342903 18.49123431 -18.72039762 17.61309813 -16.5 15.875 C-13.8119616 13.80112319 -13.8119616 13.80112319 -12 11 C-11.34 11 -10.68 11 -10 11 C-9.67 10.01 -9.34 9.02 -9 8 C-8.34 8 -7.68 8 -7 8 C-7 7.34 -7 6.68 -7 6 C-5.5459375 5.62875 -5.5459375 5.62875 -4.0625 5.25 C-3.051875 4.8375 -2.04125 4.425 -1 4 C-0.03122943 1.96756452 -0.03122943 1.96756452 0 0 Z " fill="#7A0C5A" transform="translate(75,80)"/>
<path d="M0 0 C3.39408418 1.02851036 5.54170687 2.40909675 8.0625 4.8125 C17.00396833 12.81276113 28.42132232 14.03638981 39.875 14.5625 C40.75414062 14.60568359 41.63328125 14.64886719 42.5390625 14.69335938 C44.69255797 14.79869339 46.84626064 14.89977649 49 15 C45.8283849 17.11441007 43.75460701 17.34641782 40.03515625 17.7109375 C37.80960857 17.94751487 37.80960857 17.94751487 35.125 19.125 C27.7938395 21.17772494 20.79166686 18.89274699 14 16 C14 15.34 14 14.68 14 14 C13.34 14 12.68 14 12 14 C12 13.34 12 12.68 12 12 C10.9171875 11.62875 10.9171875 11.62875 9.8125 11.25 C5.27101792 9.23156352 2.58060875 7.43769786 0.6875 2.75 C0.460625 1.8425 0.23375 0.935 0 0 Z " fill="#855403" transform="translate(90,99)"/>
<path d="M0 0 C7.62890496 -0.28139404 13.7419508 0.58065027 21 3 C21.33 2.34 21.66 1.68 22 1 C27.7045887 3.14071567 31.09277779 4.4498485 34 10 C35.13474997 11.03607606 36.30546191 12.03346503 37.5 13 C40.40884205 15.40456077 42.46351568 17.47512421 44 21 C44.1875 23.8125 44.1875 23.8125 44 26 C41.94740243 23.52272707 40.1305202 21.2610404 38.6875 18.375 C36.75518199 15.65544132 34.98835718 14.8992603 31.90625 13.75 C27.64450677 12.07324857 23.79810486 9.5320699 20 7 C20 6.34 20 5.68 20 5 C18.53240234 5.01740234 18.53240234 5.01740234 17.03515625 5.03515625 C9.9447987 5.0839591 3.03540778 4.98742565 -4 4 C-3.67 3.34 -3.34 2.68 -3 2 C-2.01 2 -1.02 2 0 2 C0 1.34 0 0.68 0 0 Z " fill="#19737F" transform="translate(34,36)"/>
<path d="M0 0 C2.475 0.495 2.475 0.495 5 1 C5 1.99 5 2.98 5 4 C14.53629623 12.24760755 27.85467231 11.74232057 39.75390625 11.19482422 C43.45768778 10.87356143 46.79143779 9.95465913 50.22265625 8.55859375 C52 8 52 8 55 9 C54.34 9 53.68 9 53 9 C53 9.66 53 10.32 53 11 C51.35 11.33 49.7 11.66 48 12 C48 12.66 48 13.32 48 14 C36.16661483 17.3331594 23.75853365 17.91853575 12.4921875 12.44140625 C9.13152913 10.49770258 6.08196569 8.36065457 3 6 C2.01 5.67 1.02 5.34 0 5 C0 3.35 0 1.7 0 0 Z " fill="#6C6A00" transform="translate(82,78)"/>
<path d="M0 0 C0.66 0 1.32 0 2 0 C1.67 1.32 1.34 2.64 1 4 C0.34 4 -0.32 4 -1 4 C-1.9802248 9.68839118 -2.11948801 15.17294333 -2.0625 20.9375 C-2.05798828 21.81212891 -2.05347656 22.68675781 -2.04882812 23.58789062 C-2.03714834 25.72529047 -2.01921689 27.86265463 -2 30 C-2.33 29.01 -2.66 28.02 -3 27 C-3.66 27 -4.32 27 -5 27 C-5.66 32.28 -6.32 37.56 -7 43 C-7.33 41.68 -7.66 40.36 -8 39 C-8.66 39 -9.32 39 -10 39 C-10.32499327 30.73072676 -10.06624566 22.9053198 -8.625 14.75 C-8.49891357 14.02369385 -8.37282715 13.2973877 -8.24291992 12.54907227 C-7.59424353 9.1268288 -6.95758304 6.93637455 -5 4 C-4.01 3.67 -3.02 3.34 -2 3 C-1.34 2.01 -0.68 1.02 0 0 Z " fill="#862107" transform="translate(81,79)"/>
<path d="M0 0 C1.10601562 0.07605469 2.21203125 0.15210937 3.3515625 0.23046875 C6.51278662 0.83902481 8.0156485 1.67757462 10.375 3.8125 C9.48039062 3.83828125 8.58578125 3.8640625 7.6640625 3.890625 C-3.78052547 4.42747134 -11.55088556 6.95903172 -20.8125 13.640625 C-22.625 14.8125 -22.625 14.8125 -24.625 14.8125 C-24.625 15.4725 -24.625 16.1325 -24.625 16.8125 C-25.285 16.8125 -25.945 16.8125 -26.625 16.8125 C-26.8725 17.34875 -27.12 17.885 -27.375 18.4375 C-28.625 20.8125 -28.625 20.8125 -30.6875 23.875 C-32.72972543 26.6960734 -32.72972543 26.6960734 -33.625 29.8125 C-34.285 29.8125 -34.945 29.8125 -35.625 29.8125 C-35.625 28.4925 -35.625 27.1725 -35.625 25.8125 C-34.965 25.8125 -34.305 25.8125 -33.625 25.8125 C-33.604375 24.94625 -33.58375 24.08 -33.5625 23.1875 C-32.40887034 19.03443324 -30.89141884 18.13238442 -27.58984375 15.59375 C-25.2578852 13.47968818 -23.76650687 11.20390041 -22.0625 8.5625 C-19.00007962 3.99621247 -19.00007962 3.99621247 -15.5625 2.3125 C-14.1084375 2.065 -14.1084375 2.065 -12.625 1.8125 C-11.25408203 1.29623047 -11.25408203 1.29623047 -9.85546875 0.76953125 C-6.29729542 -0.28458298 -3.68593918 -0.29781007 0 0 Z " fill="#3A085B" transform="translate(68.625,76.1875)"/>
<path d="M0 0 C8.10675558 -0.26485139 15.56223731 0.70136588 21.8125 6.22265625 C22.63621094 7.01349609 22.63621094 7.01349609 23.4765625 7.8203125 C25.04196547 9.35786083 25.04196547 9.35786083 27.6875 10.16015625 C31.09377698 11.63314089 32.17315624 14.01042563 34 17.16015625 C34.433125 17.86140625 34.86625 18.56265625 35.3125 19.28515625 C36.17184402 21.62882177 35.67809622 22.80877224 35 25.16015625 C34.401875 24.00515625 33.80375 22.85015625 33.1875 21.66015625 C30.21948681 16.84992798 26.26042163 14.13386508 21.62109375 11.01953125 C19 9.16015625 19 9.16015625 17.34765625 7.05078125 C10.73393295 1.72458811 -0.13161419 2.90080536 -8.1875 3.03515625 C-9.23486328 3.04417969 -10.28222656 3.05320313 -11.36132812 3.0625 C-13.90780514 3.0857555 -16.45377031 3.11843056 -19 3.16015625 C-19.33 4.15015625 -19.66 5.14015625 -20 6.16015625 C-23 8.16015625 -23 8.16015625 -26 8.16015625 C-26 7.50015625 -26 6.84015625 -26 6.16015625 C-25.34 6.16015625 -24.68 6.16015625 -24 6.16015625 C-24 5.50015625 -24 4.84015625 -24 4.16015625 C-16.42736482 0.01323699 -8.43402916 0.45025416 0 0 Z " fill="#0F5275" transform="translate(40,42.83984375)"/>
<path d="M0 0 C0.66 0.33 1.32 0.66 2 1 C1.566875 1.515625 1.13375 2.03125 0.6875 2.5625 C-1.17955374 5.06821156 -1.17955374 5.06821156 -2.4375 8.5625 C-4.3620902 12.79659843 -6.15192101 14.24763182 -10.41796875 15.984375 C-24.07737717 19.7604597 -39.27251145 18.40691758 -52 12 C-53.41015625 9.83203125 -53.41015625 9.83203125 -54 8 C-52.79730469 8.6496875 -52.79730469 8.6496875 -51.5703125 9.3125 C-39.07288221 15.43369034 -27.54374775 14.84965404 -14 13 C-14 12.34 -14 11.68 -14 11 C-13.21625 10.938125 -12.4325 10.87625 -11.625 10.8125 C-10.325625 10.4103125 -10.325625 10.4103125 -9 10 C-8.566875 8.88625 -8.566875 8.88625 -8.125 7.75 C-6.50107707 3.78041062 -3.54569355 2.22790905 0 0 Z " fill="#978703" transform="translate(144,79)"/>
<path d="M0 0 C0.33 0 0.66 0 1 0 C2.27253436 3.64793184 3.32829194 7.1936543 4 11 C4.66 11 5.32 11 6 11 C6.4125 11.9075 6.825 12.815 7.25 13.75 C8.74096335 17.0267741 8.74096335 17.0267741 11.1875 18.75 C14.1199938 22.39033713 13.30917451 26.49979323 13 31 C11.35 31 9.7 31 8 31 C4.63438409 24.9394075 2.38669459 19.96050253 2 13 C1.34 13 0.68 13 0 13 C0 8.71 0 4.42 0 0 Z " fill="#E1850C" transform="translate(79,91)"/>
<path d="M0 0 C-0.50087718 4.34093558 -3.28264698 6.75243176 -6 10 C-8.41918814 14.50328603 -8.20236982 18.65750219 -8.0625 23.625 C-7.87974308 31.63922925 -7.87974308 31.63922925 -9 35 C-8.01 35.33 -7.02 35.66 -6 36 C-5.896875 37.0725 -5.79375 38.145 -5.6875 39.25 C-5.00968114 42.94719376 -4.3631232 44.24302294 -2 47 C-1.67 47.99 -1.34 48.98 -1 50 C0.71804739 51.41833058 0.71804739 51.41833058 2.8125 52.625 C3.84310547 53.26308594 3.84310547 53.26308594 4.89453125 53.9140625 C6.937849 54.96794438 8.75485743 55.54592622 11 56 C11 56.66 11 57.32 11 58 C10.01 58 9.02 58 8 58 C8.33 58.66 8.66 59.32 9 60 C2.95890399 58.35242836 -1.10400885 53.88985748 -4.453125 48.78515625 C-5.72162939 46.54999037 -6.89905601 44.32253937 -8 42 C-8.53109375 40.95199219 -9.0621875 39.90398437 -9.609375 38.82421875 C-11.47825145 34.38533959 -11.53442067 30.07659179 -11.5 25.3125 C-11.49645508 24.43343994 -11.49291016 23.55437988 -11.48925781 22.64868164 C-11.30727616 15.47425294 -10.06673511 9.06799687 -6 3 C-2.60475162 0 -2.60475162 0 0 0 Z " fill="#AD2D2A" transform="translate(70,93)"/>
<path d="M0 0 C0.99 0.99 1.98 1.98 3 3 C3 3.66 3 4.32 3 5 C3.66 5 4.32 5 5 5 C5 5.66 5 6.32 5 7 C6.32 7.33 7.64 7.66 9 8 C9.02468857 12.5206665 9.04285449 17.0412939 9.05493164 21.56201172 C9.05996552 23.10043013 9.06679308 24.63884375 9.07543945 26.17724609 C9.08754639 28.38640526 9.09323769 30.59550126 9.09765625 32.8046875 C9.10281754 33.49432587 9.10797882 34.18396423 9.11329651 34.89450073 C9.11387171 39.77225659 9.11387171 39.77225659 8 42 C6.515 42.495 6.515 42.495 5 43 C3.95107762 44.63631892 2.95093297 46.30485863 2 48 C1.34 48.66 0.68 49.32 0 50 C-0.99 50 -1.98 50 -3 50 C-2.40353695 46.65980694 -1.31705841 44.49529367 1 42 C1.99 42 2.98 42 4 42 C4.144375 41.360625 4.28875 40.72125 4.4375 40.0625 C5 38 5 38 6 37 C6.40061216 28.6342754 5.94998365 20.31235695 5 12 C4.34 12 3.68 12 3 12 C2.01 8.04 1.02 4.08 0 0 Z " fill="#94BC2C" transform="translate(127,22)"/>
<path d="M0 0 C0.66 0.33 1.32 0.66 2 1 C2 1.99 2 2.98 2 4 C1.34 4 0.68 4 0 4 C0 4.66 0 5.32 0 6 C-0.66 6 -1.32 6 -2 6 C-1.505 6.99 -1.505 6.99 -1 8 C-0.960008 9.99960012 -0.95653201 12.00047242 -1 14 C-1.66 14 -2.32 14 -3 14 C-3 13.34 -3 12.68 -3 12 C-3.67651611 12.32452148 -4.35303223 12.64904297 -5.05004883 12.98339844 C-8.57833476 14.19930364 -11.46883557 14.25894528 -15.19921875 14.265625 C-15.87547806 14.26753845 -16.55173737 14.2694519 -17.24848938 14.27142334 C-18.66965103 14.27277813 -20.09082535 14.26913124 -21.51196289 14.26074219 C-23.6911978 14.24998174 -25.8696178 14.26068641 -28.04882812 14.2734375 C-29.43229349 14.27211676 -30.81575834 14.26955614 -32.19921875 14.265625 C-33.45565186 14.26336914 -34.71208496 14.26111328 -36.0065918 14.25878906 C-39 14 -39 14 -41 12 C-39.75863281 12.02320312 -38.51726562 12.04640625 -37.23828125 12.0703125 C-35.5963602 12.08907731 -33.95443262 12.10727675 -32.3125 12.125 C-31.49587891 12.14175781 -30.67925781 12.15851563 -29.83789062 12.17578125 C-25.36032504 12.21203684 -22.11637286 11.9362472 -18 10 C-15.8671875 9.65625 -15.8671875 9.65625 -13.875 9.5 C-9.94583641 9.28431262 -9.94583641 9.28431262 -7 7 C-8.98 6.67 -10.96 6.34 -13 6 C-10.14491782 4.559422 -7.27682755 3.15665758 -4.375 1.8125 C-3.59898437 1.44769531 -2.82296875 1.08289063 -2.0234375 0.70703125 C-1.35570312 0.47371094 -0.68796875 0.24039063 0 0 Z " fill="#A66407" transform="translate(147,108)"/>
<path d="M0 0 C0.33 0 0.66 0 1 0 C1.39244498 3.79007519 1.76098914 7.58209675 2.125 11.375 C2.23714844 12.45523438 2.34929687 13.53546875 2.46484375 14.6484375 C2.56152344 15.6796875 2.65820312 16.7109375 2.7578125 17.7734375 C2.8520752 18.72653809 2.94633789 19.67963867 3.04345703 20.66162109 C3 23 3 23 1 25 C0.15984704 27.04322915 -0.62424021 29.10976034 -1.375 31.1875 C-6.18957499 43.91374499 -6.18957499 43.91374499 -10.5 46.5 C-13.09756687 47.01951337 -14.53773786 46.91194894 -17 46 C-15.948125 45.071875 -15.948125 45.071875 -14.875 44.125 C-9.34245473 38.59245473 -5.82242462 31.21286291 -3 24 C-2.34 24 -1.68 24 -1 24 C-0.67 16.08 -0.34 8.16 0 0 Z " fill="#025A06" transform="translate(103,32)"/>
<path d="M0 0 C1.20655614 3.48200765 0.78332187 5.64537606 -0.3125 9.125 C-0.57675781 9.99382813 -0.84101563 10.86265625 -1.11328125 11.7578125 C-2 14 -2 14 -4 16 C-4.268125 16.78375 -4.53625 17.5675 -4.8125 18.375 C-6.95414869 23.10917078 -11.50855402 25.63608106 -16 28 C-16.99 28 -17.98 28 -19 28 C-19 28.99 -19 29.98 -19 31 C-22.86723631 32.26582219 -26.73151262 32.1118765 -30.75 32.0625 C-31.44738281 32.05798828 -32.14476563 32.05347656 -32.86328125 32.04882812 C-34.57555803 32.0371002 -36.28779033 32.01916653 -38 32 C-38 31.67 -38 31.34 -38 31 C-37.3709375 30.90203125 -36.741875 30.8040625 -36.09375 30.703125 C-30.78473367 29.77564624 -26.47107033 28.47268121 -21.75390625 25.87109375 C-20 25 -20 25 -17.125 24.5 C-16.42375 24.335 -15.7225 24.17 -15 24 C-13.87483915 22.16715557 -13.87483915 22.16715557 -13 20 C-10.94491109 17.66145055 -9.3223653 16.15562463 -6.5078125 14.796875 C-3.13389099 12.37942345 -2.7462441 10.27298717 -1.6875 6.3125 C-1.36136719 5.13300781 -1.03523438 3.95351563 -0.69921875 2.73828125 C-0.46847656 1.83464844 -0.23773438 0.93101563 0 0 Z " fill="#47850C" transform="translate(129,48)"/>
<path d="M0 0 C1 3 1 3 -0.125 5.9375 C-3.39054159 11.27121793 -7.28645953 13.35385766 -13.03515625 15.2890625 C-15.01418833 15.93227574 -15.01418833 15.93227574 -16.7019043 17.03222656 C-19.80327702 18.3382758 -22.37490696 18.22478152 -25.734375 18.1953125 C-27.02988281 18.18886719 -28.32539062 18.18242188 -29.66015625 18.17578125 C-31.02344019 18.15907193 -32.38672144 18.14214206 -33.75 18.125 C-35.12889985 18.1149634 -36.50780665 18.10583873 -37.88671875 18.09765625 C-41.25798882 18.07408093 -44.62890636 18.0411727 -48 18 C-48 17.34 -48 16.68 -48 16 C-49.36125 15.7834375 -49.36125 15.7834375 -50.75 15.5625 C-52.35875 15.2840625 -52.35875 15.2840625 -54 15 C-55.0828125 14.87625 -55.0828125 14.87625 -56.1875 14.75 C-58.93399377 13.61351982 -59.68468927 11.56485592 -61 9 C-46.3 13.7 -46.3 13.7 -44 16 C-31.23084628 17.40654811 -18.05194102 17.1389565 -7 10 C-4.6593791 7.38786708 -3.49690449 5.21557261 -2 2 C-1.34 2 -0.68 2 0 2 C0 1.34 0 0.68 0 0 Z " fill="#D0B603" transform="translate(149,82)"/>
<path d="M0 0 C1.32 0.33 2.64 0.66 4 1 C5.70884158 10.05410416 6.70245176 19.77070943 2 28 C1.34 28 0.68 28 0 28 C0.12375 28.7425 0.2475 29.485 0.375 30.25 C0 33 0 33 -3 35.3125 C-3.99 35.869375 -4.98 36.42625 -6 37 C-5.67 35.35 -5.34 33.7 -5 32 C-4.34 32 -3.68 32 -3 32 C-0.21909735 21.27724024 0.25124843 10.99909782 0 0 Z " fill="#027F01" transform="translate(108,32)"/>
<path d="M0 0 C-0.5 2.3125 -0.5 2.3125 -2 5 C-5.11762636 6.69091599 -8.42853507 8 -12 8 C-12 8.66 -12 9.32 -12 10 C-18.79367802 12.86049601 -25.72639538 13.08086095 -32.625 10.5 C-33.73875 10.005 -34.8525 9.51 -36 9 C-36 8.67 -36 8.34 -36 8 C-34.80503906 7.95101562 -33.61007813 7.90203125 -32.37890625 7.8515625 C-20.53018265 7.46575646 -20.53018265 7.46575646 -9 5 C-8.34 4.01 -7.68 3.02 -7 2 C-4.36034793 0.38214873 -3.15987325 0 0 0 Z " fill="#84AF22" transform="translate(124,72)"/>
<path d="M0 0 C0.495 0.99 0.495 0.99 1 2 C-5.33885945 10.21402044 -11.85409592 14.82435554 -22.15234375 16.640625 C-24.08522846 16.93085664 -24.08522846 16.93085664 -26 18 C-26 17.34 -26 16.68 -26 16 C-26.61488281 15.93941406 -27.22976562 15.87882813 -27.86328125 15.81640625 C-28.67152344 15.73261719 -29.47976562 15.64882812 -30.3125 15.5625 C-31.11300781 15.48128906 -31.91351563 15.40007812 -32.73828125 15.31640625 C-35 15 -35 15 -38 14 C-38 13.01 -38 12.02 -38 11 C-37.21753906 11.08378906 -36.43507813 11.16757813 -35.62890625 11.25390625 C-34.61699219 11.35574219 -33.60507813 11.45757812 -32.5625 11.5625 C-31.55316406 11.66691406 -30.54382813 11.77132812 -29.50390625 11.87890625 C-28.26447266 11.93884766 -28.26447266 11.93884766 -27 12 C-26.67 11.67 -26.34 11.34 -26 11 C-24.33382885 10.95936168 -22.66611905 10.957279 -21 11 C-20.67 11.66 -20.34 12.32 -20 13 C-11.03706035 10.91606595 -5.56163352 7.36782319 0 0 Z " fill="#F29320" transform="translate(144,125)"/>
<path d="M0 0 C1.25103516 0.61488281 1.25103516 0.61488281 2.52734375 1.2421875 C9.00818942 4.34527283 14.90913602 6.79815865 22 8 C22 8.66 22 9.32 22 10 C17.05 10.33 12.1 10.66 7 11 C6.67 10.34 6.34 9.68 6 9 C4.02 9 2.04 9 0 9 C-0.33 7.35 -0.66 5.7 -1 4 C-1.66 4 -2.32 4 -3 4 C-3 3.34 -3 2.68 -3 2 C-2.01 2 -1.02 2 0 2 C0 1.34 0 0.68 0 0 Z " fill="#751906" transform="translate(96,133)"/>
<path d="M0 0 C1.0828125 1.11375 1.0828125 1.11375 2.1875 2.25 C6.44823833 6.41605525 10.98494029 9.79036178 16 13 C17.5778125 14.0209375 17.5778125 14.0209375 19.1875 15.0625 C29.02075624 20.47079093 39.11622056 20.36871022 50 20 C43.90056303 23.8045993 34.54493585 22.80949347 27.75 21.25 C26.5125 20.8375 25.275 20.425 24 20 C23.22398438 19.75507812 22.44796875 19.51015625 21.6484375 19.2578125 C12.86977693 16.18664023 5.36999907 10.63814936 0 3 C0 2.01 0 1.02 0 0 Z " fill="#EFDB2B" transform="translate(88,92)"/>
<path d="M0 0 C2.76222843 2.38556092 3.98658817 4.49203597 5 8 C5.15512216 10.69212002 5.09156216 13.29891626 5 16 C4.34 15.67 3.68 15.34 3 15 C3 14.01 3 13.02 3 12 C2.34 12 1.68 12 1 12 C0.896875 12.5775 0.79375 13.155 0.6875 13.75 C-0.11649921 16.38127015 -1.13067515 17.98688093 -3 20 C-3.99 20 -4.98 20 -6 20 C-5.71640113 18.5608866 -5.42278601 17.12374482 -5.125 15.6875 C-4.96257812 14.88699219 -4.80015625 14.08648437 -4.6328125 13.26171875 C-4 11 -4 11 -2 8 C-1.33841957 5.95415921 -1.33841957 5.95415921 -0.875 3.8125 C-0.58625 2.554375 -0.2975 1.29625 0 0 Z " fill="#DEC008" transform="translate(155,68)"/>
<path d="M0 0 C0.33 0 0.66 0 1 0 C1 4.29 1 8.58 1 13 C1.66 13 2.32 13 3 13 C3.15855469 13.70125 3.31710938 14.4025 3.48046875 15.125 C5.47201524 23.22322219 8.31898014 30.61208076 15 36 C15.9590625 36.185625 15.9590625 36.185625 16.9375 36.375 C20.42757384 37.43259813 21.87770278 40.11131767 24 43 C24 43.66 24 44.32 24 45 C16.0222395 42.29325983 9.09078644 35.53858088 5.02734375 28.20703125 C0.59302863 18.68084098 -0.55865932 10.49038062 0 0 Z " fill="#E28F32" transform="translate(78,91)"/>
<path d="M0 0 C2 0 4 0 6 0 C6.07601873 2.66065558 6.0232757 4.90689719 5.375 7.5 C4.77418327 10.0162755 4.77418327 10.0162755 5.9609375 12.25390625 C7.17958629 15.47462092 7.26618842 18.0015071 7.25 21.4375 C7.25773437 23.07525391 7.25773437 23.07525391 7.265625 24.74609375 C6.98607164 28.17062239 6.38851524 30.85732717 5 34 C3.515 34.495 3.515 34.495 2 35 C2.2475 33.453125 2.2475 33.453125 2.5 31.875 C3.82783259 20.80321944 2.99405355 10.72869187 0 0 Z " fill="#053227" transform="translate(81,43)"/>
<path d="M0 0 C2.3046875 -0.21484375 2.3046875 -0.21484375 5 0 C6.6953125 1.43359375 6.6953125 1.43359375 8.125 3.4375 C8.60195312 4.07558594 9.07890625 4.71367187 9.5703125 5.37109375 C13.84198517 13.22583611 14.44806146 20.4684703 14.3125 29.3125 C14.31572266 30.38306641 14.31894531 31.45363281 14.32226562 32.55664062 C14.26304303 41.15468504 14.26304303 41.15468504 12 45 C12.02320312 44.04222656 12.04640625 43.08445313 12.0703125 42.09765625 C12.19368787 34.55645643 11.96359596 27.18120887 11.0625 19.6875 C10.97564941 18.96506104 10.88879883 18.24262207 10.79931641 17.49829102 C10.41682803 14.53135483 9.94856109 11.84568326 9 9 C8.34 9 7.68 9 7 9 C7 7.68 7 6.36 7 5 C5.35 4.67 3.7 4.34 2 4 C2 3.34 2 2.68 2 2 C1.34 1.34 0.68 0.68 0 0 Z " fill="#155C32" transform="translate(89,11)"/>
<path d="M0 0 C2.09835805 2.09835805 2.55554591 3.275873 3.5625 6 C6.12223753 12.03156545 10.47150371 16.3650647 15 21 C12.47524538 22.26237731 10.68799534 22.09856404 7.875 22.0625 C6.96492188 22.05347656 6.05484375 22.04445312 5.1171875 22.03515625 C4.06917969 22.01775391 4.06917969 22.01775391 3 22 C3.33 21.01 3.66 20.02 4 19 C4.99 19 5.98 19 7 19 C4.1204024 14.42251491 4.1204024 14.42251491 0 11 C-0.87113444 7.07989501 -1.37871915 3.82977542 0 0 Z " fill="#750B3D" transform="translate(60,130)"/>
<path d="M0 0 C0.99 0.33 1.98 0.66 3 1 C1.576875 2.299375 1.576875 2.299375 0.125 3.625 C-2.79879577 6.51447892 -3.88807184 9.01559077 -5 13 C-5.99 13.495 -5.99 13.495 -7 14 C-10.31186507 21.03771327 -11.08450178 28.33135606 -12 36 C-12.33 36 -12.66 36 -13 36 C-13.39694803 22.76839886 -11.43315551 11.08371796 -2 1 C-1.34 0.67 -0.68 0.34 0 0 Z " fill="#A7268E" transform="translate(44,92)"/>
<path d="M0 0 C1.24546405 2.49092811 0.7767578 3.41080733 0 6 C-0.66 6 -1.32 6 -2 6 C-2 14.58 -2 23.16 -2 32 C-6 29 -6 29 -6.51757812 27.04223633 C-6.52208984 26.31286865 -6.52660156 25.58350098 -6.53125 24.83203125 C-6.53640625 24.02056641 -6.5415625 23.20910156 -6.546875 22.37304688 C-6.53140625 21.52806641 -6.5159375 20.68308594 -6.5 19.8125 C-6.51546875 18.98685547 -6.5309375 18.16121094 -6.546875 17.31054688 C-6.50411321 10.5274574 -4.88292341 4.88292341 0 0 Z " fill="#660846" transform="translate(59,100)"/>
<path d="M0 0 C5.46277452 1.70076229 6.86275715 4.37332404 9.57421875 9.1796875 C11.68019863 13.34548879 13.41319593 17.61295345 15 22 C15.66 22 16.32 22 17 22 C16.34 24.31 15.68 26.62 15 29 C14.34 28.67 13.68 28.34 13 28 C13 26.02 13 24.04 13 22 C12.34 22 11.68 22 11 22 C10.68546875 21.20335938 10.3709375 20.40671875 10.046875 19.5859375 C7.77605695 13.96361089 5.55713805 8.9063973 2 4 C1.30570621 2.6808418 0.62469505 1.35350594 0 0 Z " fill="#18667D" transform="translate(67,50)"/>
<path d="M0 0 C4.29449121 1.30136097 6.96011295 3.54016784 10.21875 6.484375 C11.89142006 7.90761181 13.55415778 9.00565509 15.4375 10.125 C16.283125 10.74375 17.12875 11.3625 18 12 C18 13.32 18 14.64 18 16 C16.68 16 15.36 16 14 16 C14 15.34 14 14.68 14 14 C13.34 14 12.68 14 12 14 C12 13.34 12 12.68 12 12 C10.9171875 11.62875 10.9171875 11.62875 9.8125 11.25 C5.27101792 9.23156352 2.58060875 7.43769786 0.6875 2.75 C0.460625 1.8425 0.23375 0.935 0 0 Z " fill="#724602" transform="translate(90,99)"/>
<path d="M0 0 C10.21533258 3.43066516 10.21533258 3.43066516 13 9 C14.13350137 10.03744193 15.30448319 11.03467587 16.5 12 C19.40884205 14.40456077 21.46351568 16.47512421 23 20 C23.1875 22.8125 23.1875 22.8125 23 25 C20.93594845 22.5089033 19.07955511 20.14253623 17.5 17.3125 C15.80692968 14.70234992 14.72663556 14.32200512 12 13 C8 8.66666667 8 8.66666667 8 5 C7.071875 5.061875 6.14375 5.12375 5.1875 5.1875 C2 5 2 5 0.125 3.5 C-0.24625 3.005 -0.6175 2.51 -1 2 C-0.67 1.34 -0.34 0.68 0 0 Z " fill="#1A8492" transform="translate(55,37)"/>
<path d="M0 0 C8.91 0 17.82 0 27 0 C27 0.99 27 1.98 27 3 C27.66386719 3.08636719 28.32773438 3.17273438 29.01171875 3.26171875 C34.98117236 4.21160261 38.32013179 5.09350906 42 10 C42 10.66 42 11.32 42 12 C38.34683329 10.75023244 37.21934164 10.32901247 35 7 C32.58392583 6.20201782 32.58392583 6.20201782 29.875 5.8125 C28.96492188 5.65394531 28.05484375 5.49539062 27.1171875 5.33203125 C26.06917969 5.16767578 26.06917969 5.16767578 25 5 C24.67 4.01 24.34 3.02 24 2 C16.08 1.67 8.16 1.34 0 1 C0 0.67 0 0.34 0 0 Z " fill="#231769" transform="translate(39,68)"/>
<path d="M0 0 C0.94875 0.04125 1.8975 0.0825 2.875 0.125 C2.875 0.785 2.875 1.445 2.875 2.125 C1.12548432 3.08421722 -0.62463244 4.04233817 -2.375 5 C-3.34953125 5.53367187 -4.3240625 6.06734375 -5.328125 6.6171875 C-7.57630408 7.82919466 -9.8322805 9.00047567 -12.125 10.125 C-12.125 10.785 -12.125 11.445 -12.125 12.125 C-12.785 12.125 -13.445 12.125 -14.125 12.125 C-14.49625 12.929375 -14.49625 12.929375 -14.875 13.75 C-16.125 16.125 -16.125 16.125 -18.1875 19.1875 C-20.22972543 22.0085734 -20.22972543 22.0085734 -21.125 25.125 C-21.785 25.125 -22.445 25.125 -23.125 25.125 C-23.125 23.805 -23.125 22.485 -23.125 21.125 C-22.465 21.125 -21.805 21.125 -21.125 21.125 C-21.104375 20.25875 -21.08375 19.3925 -21.0625 18.5 C-19.90680247 14.33948888 -18.27741449 13.15741787 -14.96875 10.57421875 C-12.89177474 9.0008209 -12.89177474 9.0008209 -10.375 6.375 C-8.125 4.125 -8.125 4.125 -5.125 2.125 C-3.125 0.125 -3.125 0.125 0 0 Z " fill="#3C024D" transform="translate(56.125,80.875)"/>
<path d="M0 0 C0.66 0 1.32 0 2 0 C1.88490339 1.41750563 1.75746342 2.83401169 1.625 4.25 C1.55539063 5.03890625 1.48578125 5.8278125 1.4140625 6.640625 C0.71747583 10.60985472 -0.90402859 13.42002383 -4 16 C-4.66 16 -5.32 16 -6 16 C-6 15.01 -6 14.02 -6 13 C-8.97 13 -11.94 13 -15 13 C-13.68 12.67 -12.36 12.34 -11 12 C-11 11.34 -11 10.68 -11 10 C-7.91190305 8.23537317 -6.76687864 8 -3 8 C-3 8.66 -3 9.32 -3 10 C-2.34 10 -1.68 10 -1 10 C-1.33 7.36 -1.66 4.72 -2 2 C-1.34 2 -0.68 2 0 2 C0 1.34 0 0.68 0 0 Z " fill="#C07608" transform="translate(147,112)"/>
<path d="M0 0 C0 0.99 0 1.98 0 3 C-0.86882812 3.08636719 -1.73765625 3.17273438 -2.6328125 3.26171875 C-9.88853786 4.14636535 -13.74546604 5.00178477 -19 10 C-22.375 10.8125 -22.375 10.8125 -25 11 C-23.48336387 6.45009162 -20.12668847 5.15033177 -16 3 C-10.56943992 0.6513988 -5.90316709 -0.3767979 0 0 Z " fill="#912189" transform="translate(72,80)"/>
<path d="M0 0 C-3 2 -3 2 -6 2 C-6.268125 2.845625 -6.53625 3.69125 -6.8125 4.5625 C-10.11111111 14.11111111 -10.11111111 14.11111111 -13 17 C-14.32 15.68 -15.64 14.36 -17 13 C-16.67 12.34 -16.34 11.68 -16 11 C-15.01 11 -14.02 11 -13 11 C-12.773125 10.113125 -12.54625 9.22625 -12.3125 8.3125 C-10.80058917 4.49672505 -9.13717673 2.61431394 -6 0 C-3.3047908 -1.07808368 -2.60944584 -1.30472292 0 0 Z " fill="#291D70" transform="translate(23,78)"/>
<path d="M0 0 C0.33 0 0.66 0 1 0 C1 4.95 1 9.9 1 15 C0.34 15 -0.32 15 -1 15 C-0.979375 16.051875 -0.95875 17.10375 -0.9375 18.1875 C-0.98896802 21.32704904 -1.26517187 23.96883396 -2 27 C-2.33 27 -2.66 27 -3 27 C-3.02718316 24.14576808 -3.04692705 21.29179985 -3.0625 18.4375 C-3.07087891 17.63763672 -3.07925781 16.83777344 -3.08789062 16.01367188 C-3.10731238 11.25534176 -2.95847758 6.68388103 -2 2 C-1.34 1.34 -0.68 0.68 0 0 Z " fill="#6F1202" transform="translate(76,90)"/>
<path d="M0 0 C1.45903258 0.30921884 2.91720722 0.62248799 4.375 0.9375 C5.18710938 1.11152344 5.99921875 1.28554687 6.8359375 1.46484375 C9 2 9 2 11 3 C16.81407433 3.44964963 21.4957745 2.96579482 27 1 C29.375 1.375 29.375 1.375 31 2 C28.14907353 4.85092647 25.02766057 4.66925114 21.1875 5.0625 C15.67469222 5.61839427 15.67469222 5.61839427 10.2578125 6.73828125 C8 7 8 7 5.76171875 5.8203125 C5.07722656 5.26085937 4.39273438 4.70140625 3.6875 4.125 C2.99011719 3.57070312 2.29273437 3.01640625 1.57421875 2.4453125 C1.05472656 1.96835938 0.53523438 1.49140625 0 1 C0 0.67 0 0.34 0 0 Z " fill="#B0D93D" transform="translate(85,80)"/>
<path d="M0 0 C0.8971875 0.309375 0.8971875 0.309375 1.8125 0.625 C0.8225 0.625 -0.1675 0.625 -1.1875 0.625 C-1.1875 1.285 -1.1875 1.945 -1.1875 2.625 C-2.5625 4.25 -2.5625 4.25 -4.1875 5.625 C-4.8475 5.625 -5.5075 5.625 -6.1875 5.625 C-6.39375 6.181875 -6.6 6.73875 -6.8125 7.3125 C-8.69077969 10.47142493 -11.37598805 12.29204327 -14.1875 14.625 C-14.5175 15.615 -14.8475 16.605 -15.1875 17.625 C-15.8475 17.955 -16.5075 18.285 -17.1875 18.625 C-17.91443904 20.60388961 -18.58566251 22.60454558 -19.1875 24.625 C-19.5175 24.625 -19.8475 24.625 -20.1875 24.625 C-20.42170013 18.41869654 -18.50513197 15.20811987 -14.375 10.6875 C-9.13186629 5.05713337 -9.13186629 5.05713337 -5.1875 4.625 C-5.1875 3.635 -5.1875 2.645 -5.1875 1.625 C-2.1875 -0.375 -2.1875 -0.375 0 0 Z " fill="#8F0F6D" transform="translate(69.1875,85.375)"/>
<path d="M0 0 C3.82737577 0.11598108 5.81520629 1.45620202 8.5 4 C12.07247199 7.79966867 15.24315823 12.0497323 17 17 C16.625 19.26953125 16.625 19.26953125 16 21 C15.34 20.34 14.68 19.68 14 19 C14 18.01 14 17.02 14 16 C13.34 16 12.68 16 12 16 C11.5875 14.9275 11.175 13.855 10.75 12.75 C9.33473266 9.46764288 7.85319563 7.24797231 5 5 C2.8618034 4.2127322 2.8618034 4.2127322 1 4 C0.67 2.68 0.34 1.36 0 0 Z " fill="#39A4AB" transform="translate(64,27)"/>
<path d="M0 0 C-3.85294214 3.85294214 -6.78420542 4.51671797 -12.01171875 4.82421875 C-14.0736785 4.88404417 -14.0736785 4.88404417 -16 6 C-22.4032863 6.36651807 -28.66983002 5.95549736 -35 5 C-35 4.67 -35 4.34 -35 4 C-33.081875 3.92652344 -33.081875 3.92652344 -31.125 3.8515625 C-29.41664778 3.77647009 -27.70831541 3.70092513 -26 3.625 C-25.16082031 3.5940625 -24.32164063 3.563125 -23.45703125 3.53125 C-16.77606871 3.22050756 -10.95777068 2.04069709 -4.625 -0.1875 C-2 -1 -2 -1 0 0 Z " fill="#ECD202" transform="translate(142,98)"/>
<path d="M0 0 C1.65 0 3.3 0 5 0 C4.67 0.99 4.34 1.98 4 3 C3.01 3 2.02 3 1 3 C0.773125 3.598125 0.54625 4.19625 0.3125 4.8125 C-1 7 -1 7 -3.37890625 8.3125 C-6.42946135 10.27649375 -7.51894114 12.03059529 -9.25 15.1875 C-10.14668551 16.80292055 -11.05776181 18.4107185 -12 20 C-12.33 20 -12.66 20 -13 20 C-13.1875 17.6875 -13.1875 17.6875 -13 15 C-11.5625 13.4375 -11.5625 13.4375 -10 12 C-9.28552357 9.89667109 -9.28552357 9.89667109 -9 8 C-8.34 8 -7.68 8 -7 8 C-7 7.34 -7 6.68 -7 6 C-6.030625 5.7525 -5.06125 5.505 -4.0625 5.25 C-3.051875 4.8375 -2.04125 4.425 -1 4 C-0.03122943 1.96756452 -0.03122943 1.96756452 0 0 Z " fill="#810F4C" transform="translate(75,80)"/>
<path d="M0 0 C0.33 0 0.66 0 1 0 C1.33 2.97 1.66 5.94 2 9 C3.32 9.33 4.64 9.66 6 10 C3.35261084 11.4606285 2.10551666 12 -1 12 C-1 12.66 -1 13.32 -1 14 C-1.66 14 -2.32 14 -3 14 C-3 14.66 -3 15.32 -3 16 C-3.66 15.67 -4.32 15.34 -5 15 C-4.34 11.04 -3.68 7.08 -3 3 C-2.01 3 -1.02 3 0 3 C0 2.01 0 1.02 0 0 Z " fill="#296F87" transform="translate(17,35)"/>
<path d="M0 0 C0.33 0 0.66 0 1 0 C1.08097324 2.27024968 1.13917704 4.54132075 1.1875 6.8125 C1.22230469 8.07707031 1.25710937 9.34164062 1.29296875 10.64453125 C1 14 1 14 -0.51171875 15.94921875 C-1.00285156 16.29597656 -1.49398437 16.64273438 -2 17 C-2.69965443 15.73581754 -3.38434763 14.46334598 -4.0625 13.1875 C-4.44535156 12.47980469 -4.82820313 11.77210937 -5.22265625 11.04296875 C-6 9 -6 9 -5 6 C-4.34 6.66 -3.68 7.32 -3 8 C-2.01 5.36 -1.02 2.72 0 0 Z " fill="#2C8990" transform="translate(84,56)"/>
<path d="M0 0 C0.99 0.66 1.98 1.32 3 2 C2.06423654 8.23021458 1.11611043 13.11211886 -3 18 C-3.66 18 -4.32 18 -5 18 C-4.25 12.25 -4.25 12.25 -2 10 C-2 9.05125 -2 8.1025 -2 7.125 C-2 4.00706115 -1.60230924 2.60375251 0 0 Z " fill="#C0AC08" transform="translate(152,66)"/>
<path d="M0 0 C1.48886719 -0.00483398 1.48886719 -0.00483398 3.0078125 -0.00976562 C10.34866393 0.04494262 10.34866393 0.04494262 13.75 2.3125 C4.84 2.3125 -4.07 2.3125 -13.25 2.3125 C-13.58 3.3025 -13.91 4.2925 -14.25 5.3125 C-17.25 7.3125 -17.25 7.3125 -20.25 7.3125 C-20.25 6.6525 -20.25 5.9925 -20.25 5.3125 C-19.59 5.3125 -18.93 5.3125 -18.25 5.3125 C-18.25 4.6525 -18.25 3.9925 -18.25 3.3125 C-12.10999371 0.06241287 -6.87124511 -0.11331209 0 0 Z " fill="#124987" transform="translate(34.25,43.6875)"/>
<path d="M0 0 C-0.66 0 -1.32 0 -2 0 C-2 0.66 -2 1.32 -2 2 C-3.65 2.33 -5.3 2.66 -7 3 C-7 3.66 -7 4.32 -7 5 C-9.70879335 6.35439668 -12.00933268 6.06501451 -15 6 C-15 5.67 -15 5.34 -15 5 C-21.93 4.505 -21.93 4.505 -29 4 C-29 3.67 -29 3.34 -29 3 C-27.96101563 2.96261719 -26.92203125 2.92523438 -25.8515625 2.88671875 C-18.52023979 2.561195 -11.8641838 2.1297626 -4.91796875 -0.4765625 C-3 -1 -3 -1 0 0 Z " fill="#7A7B06" transform="translate(137,87)"/>
<path d="M0 0 C0.66 0.33 1.32 0.66 2 1 C-9.63357931 11.04127376 -21.33772128 10.41617822 -36 10 C-36 9.67 -36 9.34 -36 9 C-34.81664063 8.96261719 -33.63328125 8.92523438 -32.4140625 8.88671875 C-20.90537222 8.44342105 -11.23685936 7.76726856 -1.59375 0.890625 C-1.0678125 0.59671875 -0.541875 0.3028125 0 0 Z " fill="#A0BF2A" transform="translate(140,80)"/>
<path d="M0 0 C2.475 0.495 2.475 0.495 5 1 C5 1.99 5 2.98 5 4 C9.32796062 7.46236849 13.78399781 9.20137856 19 11 C19 11.33 19 11.66 19 12 C12.86457011 12.78324637 9.93037433 11.04466493 5.015625 7.41015625 C2.95709827 5.82752116 2.95709827 5.82752116 0 5 C0 3.35 0 1.7 0 0 Z " fill="#6A6F05" transform="translate(82,78)"/>
<path d="M0 0 C0 3 0 3 -2 5.1875 C-2.66 5.785625 -3.32 6.38375 -4 7 C-2.35 7.33 -0.7 7.66 1 8 C-1.91850212 9.94566808 -3.57622848 10.5152457 -6.9375 11.1875 C-8.21947266 11.45626953 -8.21947266 11.45626953 -9.52734375 11.73046875 C-12.01134859 12.00123705 -13.64449502 11.77059444 -16 11 C-15.44570312 10.82984375 -14.89140625 10.6596875 -14.3203125 10.484375 C-9.88609013 9.22177841 -9.88609013 9.22177841 -6.875 6.0625 C-6.441875 5.0415625 -6.441875 5.0415625 -6 4 C-2.875 1.75 -2.875 1.75 0 0 Z " fill="#178E05" transform="translate(103,68)"/>
<path d="M0 0 C7.92 0.33 15.84 0.66 24 1 C20.85638133 4.14361867 17.56884145 4.16747437 13.25 4.25 C8.22267487 4.22016424 4.57137778 3.03172346 0 1 C0 0.67 0 0.34 0 0 Z " fill="#99C12F" transform="translate(88,80)"/>
<path d="M0 0 C0.33 0 0.66 0 1 0 C1.34986966 4.1984359 0.60104849 5.77469987 -2 9 C-2.70514846 11.14733927 -2.70514846 11.14733927 -3 13 C-3.99 13 -4.98 13 -6 13 C-6.33 14.32 -6.66 15.64 -7 17 C-7.6875 15.25 -7.6875 15.25 -8 13 C-7.04701223 11.63266972 -6.04625409 10.29735507 -5 9 C-5 8.01 -5 7.02 -5 6 C-3.53424176 3.77702348 -1.80284129 1.97872825 0 0 Z " fill="#AB9A01" transform="translate(150,71)"/>
<path d="M0 0 C3.98021881 2.16069021 6.97250324 4.62650361 10 8 C10 8.66 10 9.32 10 10 C8.02 9.34 6.04 8.68 4 8 C3.67 8.99 3.34 9.98 3 11 C0.84694043 7.14243493 -0.39253254 4.44870215 0 0 Z " fill="#BDA416" transform="translate(84,83)"/>
<path d="M0 0 C2.31 0 4.62 0 7 0 C5 3 5 3 2.78515625 3.73046875 C-3.87140086 4.84785352 -10.2539432 5.23487238 -17 5 C-17 4.34 -17 3.68 -17 3 C-11.39 3 -5.78 3 0 3 C0 2.01 0 1.02 0 0 Z " fill="#FBEF1E" transform="translate(139,108)"/>
<path d="M0 0 C7.53217372 -0.38663249 16.80977992 -0.77671152 22.78125 4.60546875 C23.1834375 5.06566406 23.585625 5.52585937 24 6 C19.93884941 6.38073287 17.07043908 5.31032116 13.3359375 3.80078125 C9.01591614 2.31983747 4.5012825 1.70332539 0 1 C0 0.67 0 0.34 0 0 Z " fill="#105269" transform="translate(37,43)"/>
<path d="M0 0 C0.99 0.99 1.98 1.98 3 3 C3 3.66 3 4.32 3 5 C3.66 5 4.32 5 5 5 C5 5.66 5 6.32 5 7 C5.66 7 6.32 7 7 7 C7 12.28 7 17.56 7 23 C6.67 23 6.34 23 6 23 C5.67 19.37 5.34 15.74 5 12 C4.34 12 3.68 12 3 12 C2.01 8.04 1.02 4.08 0 0 Z " fill="#85BB2B" transform="translate(127,22)"/>
<path d="M0 0 C2.30078125 -0.23046875 2.30078125 -0.23046875 5 0 C8.62892531 3.30125711 11.80853636 8.23414542 13 13 C12.625 15.3125 12.625 15.3125 12 17 C9 11.25 9 11.25 9 9 C8.34 9 7.68 9 7 9 C7 7.68 7 6.36 7 5 C5.35 4.67 3.7 4.34 2 4 C2 3.34 2 2.68 2 2 C1.34 1.34 0.68 0.68 0 0 Z " fill="#0F691F" transform="translate(89,11)"/>
<path d="M0 0 C2.22761093 0.72797743 4.4517369 1.46432537 6.671875 2.21484375 C8.42178922 2.80499939 10.17817714 3.37601398 11.9375 3.9375 C14.44733464 5.23044512 15.04314637 6.3903992 16 9 C15.01 9 14.02 9 13 9 C13 8.34 13 7.68 13 7 C11.63875 6.7834375 11.63875 6.7834375 10.25 6.5625 C8.64125 6.2840625 8.64125 6.2840625 7 6 C5.9171875 5.87625 5.9171875 5.87625 4.8125 5.75 C2.06600623 4.61351982 1.31531073 2.56485592 0 0 Z " fill="#D9BC0A" transform="translate(88,91)"/>
<path d="M0 0 C0.33 0.66 0.66 1.32 1 2 C-4.31532336 8.88770198 -10.14749127 14.47975122 -19.0625 15.8125 C-20.031875 15.874375 -21.00125 15.93625 -22 16 C-18.7749534 12.7749534 -14.83782048 11.28942889 -10.5625 9.8125 C-5.87341511 7.42682523 -3.20143915 4.09667441 0 0 Z " fill="#F0B752" transform="translate(144,125)"/>
<path d="M0 0 C2.3828125 0.0234375 2.3828125 0.0234375 5.125 0.375 C6.03507812 0.48585938 6.94515625 0.59671875 7.8828125 0.7109375 C8.93082031 0.85402344 8.93082031 0.85402344 10 1 C10 1.66 10 2.32 10 3 C13.3 3 16.6 3 20 3 C20 3.33 20 3.66 20 4 C17.08308475 4.05401695 14.16717276 4.09368066 11.25 4.125 C10.425 4.14175781 9.6 4.15851563 8.75 4.17578125 C7.95078125 4.18222656 7.1515625 4.18867187 6.328125 4.1953125 C5.5949707 4.20578613 4.86181641 4.21625977 4.10644531 4.22705078 C1.70103924 3.96777544 0.08748506 3.19225925 -2 2 C-1.34 1.34 -0.68 0.68 0 0 Z " fill="#C2ED4F" transform="translate(98,85)"/>
<path d="M0 0 C0.33 0.66 0.66 1.32 1 2 C0.0625 4.625 0.0625 4.625 -1 7 C-1.66 7 -2.32 7 -3 7 C-3.66 9.97 -4.32 12.94 -5 16 C-6.32 15.34 -7.64 14.68 -9 14 C-7.64002446 7.95566426 -4.14348206 4.36505864 0 0 Z " fill="#3B9697" transform="translate(24,24)"/>
<path d="M0 0 C0 0.33 0 0.66 0 1 C-1.65 1 -3.3 1 -5 1 C-5 1.66 -5 2.32 -5 3 C-6.65 3 -8.3 3 -10 3 C-10.33 3.99 -10.66 4.98 -11 6 C-11.99 5.67 -12.98 5.34 -14 5 C-14.2475 5.61875 -14.495 6.2375 -14.75 6.875 C-16.20628639 9.35068687 -17.37812506 9.95125002 -20 11 C-19.8046875 9.19921875 -19.8046875 9.19921875 -19 7 C-16.8203125 5.33203125 -16.8203125 5.33203125 -14.125 3.8125 C-13.24070312 3.30332031 -12.35640625 2.79414062 -11.4453125 2.26953125 C-7.44753119 0.19400581 -4.45311177 -0.09895804 0 0 Z " fill="#466A5E" transform="translate(69,4)"/>
<path d="M0 0 C0 0.99 0 1.98 0 3 C-3.86723631 4.26582219 -7.73151262 4.1118765 -11.75 4.0625 C-12.44738281 4.05798828 -13.14476563 4.05347656 -13.86328125 4.04882812 C-15.57555803 4.0371002 -17.28779033 4.01916653 -19 4 C-19 3.67 -19 3.34 -19 3 C-18.31292969 2.86722656 -17.62585938 2.73445313 -16.91796875 2.59765625 C-15.56638672 2.33275391 -15.56638672 2.33275391 -14.1875 2.0625 C-12.84751953 1.80146484 -12.84751953 1.80146484 -11.48046875 1.53515625 C-3.95735294 -0.08794118 -3.95735294 -0.08794118 0 0 Z " fill="#5F9216" transform="translate(110,76)"/>
<path d="M0 0 C-2.86698342 3.49413605 -4.84150148 5.28836874 -9.3125 5.8125 C-11.1378125 5.9053125 -11.1378125 5.9053125 -13 6 C-12.5 4.1875 -12.5 4.1875 -11 2 C-7.13299138 -0.07131347 -4.24876637 -1.41625546 0 0 Z " fill="#082169" transform="translate(37,66)"/>
<path d="M0 0 C0.33 0 0.66 0 1 0 C2.43438575 7.53052517 3.43869509 16.68391474 1 24 C0.34 24 -0.32 24 -1 24 C-0.67 16.08 -0.34 8.16 0 0 Z " fill="#055213" transform="translate(103,32)"/>
<path d="M0 0 C4.09347331 0.54338141 6.46420955 1.75685206 9.6875 4.3125 C10.83798828 5.20388672 10.83798828 5.20388672 12.01171875 6.11328125 C13.98773614 7.98836259 14.96906935 9.50261185 16 12 C15.29875 11.34 14.5975 10.68 13.875 10 C10.56539771 7.69766797 8.93774177 7.63369844 5 8 C4.9175 7.05125 4.835 6.1025 4.75 5.125 C4.34925077 1.89538209 4.34925077 1.89538209 1.9375 0.625 C1.298125 0.41875 0.65875 0.2125 0 0 Z " fill="#C3E45A" transform="translate(132,28)"/>
<path d="M0 0 C1.134375 0.020625 2.26875 0.04125 3.4375 0.0625 C0.15234079 3.34765921 -3.43036706 3.99802774 -7.9921875 4.2578125 C-9.12914063 4.23460937 -10.26609375 4.21140625 -11.4375 4.1875 C-12.58992188 4.16945312 -13.74234375 4.15140625 -14.9296875 4.1328125 C-15.79851562 4.10960937 -16.66734375 4.08640625 -17.5625 4.0625 C-17.2325 3.4025 -16.9025 2.7425 -16.5625 2.0625 C-13.875 1.68359375 -13.875 1.68359375 -10.5625 1.5 C-6.57036803 1.26932256 -3.7700474 0.06614118 0 0 Z " fill="#B8574A" transform="translate(103.5625,151.9375)"/>
<path d="M0 0 C0.33 1.32 0.66 2.64 1 4 C0.29875 4.515625 -0.4025 5.03125 -1.125 5.5625 C-5.90908248 9.61856993 -10.14293157 13.87167417 -12 20 C-13.0772656 16.76820321 -13.25643258 16.05133626 -12 13 C-10.38161281 11.28641357 -8.70328319 9.6292274 -7 8 C-4.62994491 5.36496981 -2.31244786 2.68563829 0 0 Z " fill="#A61684" transform="translate(61,87)"/>
<path d="M0 0 C0.66 0 1.32 0 2 0 C1.68289062 1.1034375 1.36578125 2.206875 1.0390625 3.34375 C-0.21912028 8.37648112 -0.44474308 13.33263483 -0.625 18.5 C-0.66367187 19.4178125 -0.70234375 20.335625 -0.7421875 21.28125 C-0.83549564 23.52064528 -0.92128185 25.76005254 -1 28 C-1.33 28 -1.66 28 -2 28 C-2.33 20.74 -2.66 13.48 -3 6 C-2.34 6 -1.68 6 -1 6 C-0.67 4.02 -0.34 2.04 0 0 Z " fill="#6D0B29" transform="translate(60,100)"/>
<path d="M0 0 C0.75 1.625 0.75 1.625 1 4 C-0.75892037 7.03262133 -2.52190288 9.52190288 -5 12 C-5.99 12 -6.98 12 -8 12 C-7.40353695 8.65980694 -6.31705841 6.49529367 -4 4 C-3.01 4 -2.02 4 -1 4 C-0.67 2.68 -0.34 1.36 0 0 Z " fill="#91B827" transform="translate(132,60)"/>
<path d="M0 0 C4.46961619 1.34241032 6.07407289 2.98213743 8.375 7 C8.89835937 7.886875 9.42171875 8.77375 9.9609375 9.6875 C10.30382812 10.450625 10.64671875 11.21375 11 12 C10.67 12.66 10.34 13.32 10 14 C7 13 7 13 5.9375 11.328125 C5.628125 10.64234375 5.31875 9.9565625 5 9.25 C3.49907001 6.04031895 1.88086359 3.00938175 0 0 Z " fill="#19747F" transform="translate(67,50)"/>
<path d="M0 0 C0.66 0 1.32 0 2 0 C2.48123483 5.77481791 1.52338272 10.26953246 -2 15 C-4.140625 16.23046875 -4.140625 16.23046875 -6 17 C-5.53980469 16.30519531 -5.07960938 15.61039063 -4.60546875 14.89453125 C-2.89927453 11.81840007 -2.10149131 9.10646232 -1.3125 5.6875 C-1.06113281 4.61886719 -0.80976563 3.55023438 -0.55078125 2.44921875 C-0.27814453 1.23685547 -0.27814453 1.23685547 0 0 Z " fill="#6B9318" transform="translate(130,48)"/>
<path d="M0 0 C4.455 0.99 4.455 0.99 9 2 C9 2.66 9 3.32 9 4 C9.99 4 10.98 4 12 4 C12.33 4.99 12.66 5.98 13 7 C6.86592242 6.63195535 4.26093821 5.15701288 0 1 C0 0.67 0 0.34 0 0 Z " fill="#EFD30A" transform="translate(92,96)"/>
<path d="M0 0 C2.76222843 2.38556092 3.98658817 4.49203597 5 8 C5.15512216 10.69212002 5.09156216 13.29891626 5 16 C4.34 15.67 3.68 15.34 3 15 C2.59270772 12.67843403 2.25561323 10.3431213 2 8 C1.34 8 0.68 8 0 8 C0 5.36 0 2.72 0 0 Z " fill="#E2C636" transform="translate(155,68)"/>
<path d="M0 0 C0.33 0 0.66 0 1 0 C1.50744423 1.89385437 2.00564574 3.79018666 2.5 5.6875 C2.7784375 6.74324219 3.056875 7.79898438 3.34375 8.88671875 C3.9391715 11.71142672 4.12786492 14.12836708 4 17 C3.34 17.33 2.68 17.66 2 18 C2 16.35 2 14.7 2 13 C1.34 13 0.68 13 0 13 C0 8.71 0 4.42 0 0 Z " fill="#DC8716" transform="translate(79,91)"/>
<path d="M0 0 C-1.89564426 0.79211929 -3.79152371 1.58367576 -5.6875 2.375 C-6.74324219 2.81585938 -7.79898437 3.25671875 -8.88671875 3.7109375 C-11.58356657 4.82757462 -14.28716264 5.92291801 -17 7 C-17.33 6.34 -17.66 5.68 -18 5 C-17.34 5 -16.68 5 -16 5 C-16 4.34 -16 3.68 -16 3 C-13.06473313 1.04315542 -11.38453435 0.48235576 -8 -0.1875 C-7.13375 -0.36667969 -6.2675 -0.54585938 -5.375 -0.73046875 C-3 -1 -3 -1 0 0 Z " fill="#151C63" transform="translate(36,71)"/>
<path d="M0 0 C7.59 0 15.18 0 23 0 C23.33 0.66 23.66 1.32 24 2 C23.00097656 1.98839844 22.00195312 1.97679687 20.97265625 1.96484375 C19.68230469 1.95582031 18.39195313 1.94679688 17.0625 1.9375 C15.13083984 1.92009766 15.13083984 1.92009766 13.16015625 1.90234375 C10.13701597 1.63467451 10.13701597 1.63467451 9 3 C5.5625 3.25 5.5625 3.25 2 3 C1.34 2.01 0.68 1.02 0 0 Z " fill="#58AB61" transform="translate(86,8)"/>
<path d="M0 0 C0.66 0.33 1.32 0.66 2 1 C2 1.99 2 2.98 2 4 C1.34 4 0.68 4 0 4 C0 4.66 0 5.32 0 6 C-0.66 6 -1.32 6 -2 6 C-1.67 6.66 -1.34 7.32 -1 8 C-0.960008 9.99960012 -0.95653201 12.00047242 -1 14 C-1.33 14 -1.66 14 -2 14 C-2.33 10.7 -2.66 7.4 -3 4 C-4.98 4.33 -6.96 4.66 -9 5 C-6.06626269 3.04417512 -3.21783702 1.43775696 0 0 Z " fill="#AE7F0E" transform="translate(147,108)"/>
<path d="M0 0 C-0.33 2.31 -0.66 4.62 -1 7 C-1.99 7.33 -2.98 7.66 -4 8 C-4 7.34 -4 6.68 -4 6 C-6.475 7.485 -6.475 7.485 -9 9 C-7.45665977 5.21180126 -4.44676575 0 0 0 Z " fill="#9C2820" transform="translate(74,87)"/>
<path d="M0 0 C2.31 0.33 4.62 0.66 7 1 C7.268125 1.721875 7.53625 2.44375 7.8125 3.1875 C8.98982498 5.97590126 10.39145884 8.44095724 12 11 C8.57472113 9.52651292 6.35044942 7.59092154 3.75 4.9375 C3.04359375 4.22464844 2.3371875 3.51179688 1.609375 2.77734375 C0 1 0 1 0 0 Z " fill="#033730" transform="translate(66,25)"/>
<path d="M0 0 C2.66710654 0.15240609 4.4505871 0.49364919 6.4453125 2.33203125 C10 6.50625 10 6.50625 10 9 C6.01457486 7.63356852 3.07460137 5.89890986 0 3 C0 2.01 0 1.02 0 0 Z " fill="#E89327" transform="translate(92,127)"/>
<path d="M0 0 C1.8671875 0.1953125 1.8671875 0.1953125 4 1 C5.1953125 3.1796875 5.1953125 3.1796875 6.125 5.875 C7.22088151 8.9815071 8.15349428 11.23024142 10 14 C9.34 14.66 8.68 15.32 8 16 C5.00068885 10.77195171 2.25992026 5.59032906 0 0 Z " fill="#865404" transform="translate(80,83)"/>
<path d="M0 0 C-0.5625 1.8125 -0.5625 1.8125 -2 4 C-8 7 -8 7 -11 7 C-11 6.34 -11 5.68 -11 5 C-9.609375 3.7109375 -9.609375 3.7109375 -7.75 2.375 C-7.14671875 1.92898437 -6.5434375 1.48296875 -5.921875 1.0234375 C-4 0 -4 0 0 0 Z " fill="#AD9302" transform="translate(141,88)"/>
<path d="M0 0 C0.66 0 1.32 0 2 0 C1.75 1.875 1.75 1.875 1 4 C0.3709375 4.2784375 -0.258125 4.556875 -0.90625 4.84375 C-3.6354767 6.35093489 -4.10659828 7.76649571 -5.25 10.625 C-5.58515625 11.44226563 -5.9203125 12.25953125 -6.265625 13.1015625 C-6.50796875 13.72804688 -6.7503125 14.35453125 -7 15 C-8.10235591 11.6258971 -7.97848812 10.93653994 -6.75 7.3125 C-5 4 -5 4 -2 3 C-1.34 2.01 -0.68 1.02 0 0 Z " fill="#7C2916" transform="translate(81,79)"/>
<path d="M0 0 C1.2065625 0.0309375 1.2065625 0.0309375 2.4375 0.0625 C1.50427104 3.28638187 1.02450229 4.72265657 -1.9375 6.4375 C-4.64573761 7.08231848 -5.98635222 7.01662881 -8.5625 6.0625 C-2.5625 0.0625 -2.5625 0.0625 0 0 Z " fill="#077304" transform="translate(94.5625,71.9375)"/>
<path d="M0 0 C1.27133789 0.00966797 1.27133789 0.00966797 2.56835938 0.01953125 C3.8899707 0.04466797 3.8899707 0.04466797 5.23828125 0.0703125 C6.57729492 0.08384766 6.57729492 0.08384766 7.94335938 0.09765625 C10.14610439 0.12121502 12.34830713 0.15410921 14.55078125 0.1953125 C14.55078125 0.5253125 14.55078125 0.8553125 14.55078125 1.1953125 C13.4421875 1.24429688 12.33359375 1.29328125 11.19140625 1.34375 C9.7278406 1.41880465 8.26430013 1.49435131 6.80078125 1.5703125 C6.07117188 1.60125 5.3415625 1.6321875 4.58984375 1.6640625 C0.7398487 1.87406223 -2.10610456 2.27611731 -5.44921875 4.1953125 C-8.69921875 4.3203125 -8.69921875 4.3203125 -11.44921875 4.1953125 C-10.55203125 3.7621875 -10.55203125 3.7621875 -9.63671875 3.3203125 C-3.0996548 -0.0416061 -3.0996548 -0.0416061 0 0 Z " fill="#3C1B7C" transform="translate(41.44921875,68.8046875)"/>
<path d="M0 0 C3.8063457 0.67170806 7.35206816 1.72746564 11 3 C11 3.66 11 4.32 11 5 C13.97 5.495 13.97 5.495 17 6 C17 6.66 17 7.32 17 8 C11.25 8.125 11.25 8.125 9 7 C9 6.01 9 5.02 9 4 C7.88625 3.8453125 7.88625 3.8453125 6.75 3.6875 C3.82985982 2.95746496 2.26812446 1.93210602 0 0 Z " fill="#0F2579" transform="translate(57,64)"/>
<path d="M0 0 C0.66 0.66 1.32 1.32 2 2 C1.6875 4.6875 1.6875 4.6875 1 8 C0.66140041 10.33257494 0.3267961 12.66574212 0 15 C-0.66 15 -1.32 15 -2 15 C-2.3690205 4.44191344 -2.3690205 4.44191344 0 0 Z " fill="#4F61B4" transform="translate(2,62)"/>
<path d="M0 0 C0.33 0 0.66 0 1 0 C2.91958262 8.39817396 3.22588024 16.40400201 3 25 C2.67 25 2.34 25 2 25 C1.67 21.37 1.34 17.74 1 14 C0.67 14 0.34 14 0 14 C0 9.38 0 4.76 0 0 Z " fill="#75AF23" transform="translate(131,34)"/>
<path d="M0 0 C0.33 0 0.66 0 1 0 C1.06058594 1.03640625 1.12117188 2.0728125 1.18359375 3.140625 C1.26803371 4.51042873 1.35267997 5.88021975 1.4375 7.25 C1.47681641 7.93191406 1.51613281 8.61382812 1.55664062 9.31640625 C1.76666472 12.64448041 2.01934002 15.80255402 3 19 C1.68 19 0.36 19 -1 19 C-1.93423645 15.98968256 -2.04449911 15.13349732 -1 12 C-0.95602383 10.12551578 -0.96043098 8.24958243 -1 6.375 C-1.03761201 4.58372817 -1.04667254 2.79105866 -1 1 C-0.67 0.67 -0.34 0.34 0 0 Z " fill="#300645" transform="translate(29,114)"/>
<path d="M0 0 C-0.33 0.33 -0.66 0.66 -1 1 C2.29960141 2.6498007 5.99127884 2.38258361 9.625 2.5625 C10.42679688 2.60568359 11.22859375 2.64886719 12.0546875 2.69335938 C14.0362511 2.79951457 16.01810271 2.90026855 18 3 C18 3.33 18 3.66 18 4 C15.14524694 4.08156437 12.29286435 4.14076372 9.4375 4.1875 C8.23770508 4.22520508 8.23770508 4.22520508 7.01367188 4.26367188 C1.55205195 4.33054885 -2.12924103 3.4909519 -7 1 C-3.375 -1.125 -3.375 -1.125 0 0 Z " fill="#7F7404" transform="translate(104,90)"/>
<path d="M0 0 C0.33 0.66 0.66 1.32 1 2 C1.99 2.33 2.98 2.66 4 3 C4.6875 5.0625 4.6875 5.0625 5 7 C5.66 7 6.32 7 7 7 C8.28430862 8.47695491 9.56580708 9.95806138 10.78125 11.4921875 C12.06784671 13.13813095 12.06784671 13.13813095 14 15 C10.20893773 14.43899078 8.4970605 12.84675862 5.875 10.125 C5.19179687 9.42632812 4.50859375 8.72765625 3.8046875 8.0078125 C0 3.77489177 0 3.77489177 0 0 Z " fill="#A15B02" transform="translate(86,99)"/>
<path d="M0 0 C0.99 0 1.98 0 3 0 C2.67462254 3.03685633 2.04763274 3.95633666 -0.25 6.0625 C-5.44444444 9.72222222 -5.44444444 9.72222222 -8 11 C-8.99 10.67 -9.98 10.34 -11 10 C-10.37351562 9.61328125 -9.74703125 9.2265625 -9.1015625 8.828125 C-8.28429687 8.30734375 -7.46703125 7.7865625 -6.625 7.25 C-5.40683594 6.48429687 -5.40683594 6.48429687 -4.1640625 5.703125 C-1.91444321 3.9326665 -1.04093152 2.63092581 0 0 Z " fill="#64851B" transform="translate(121,65)"/>
<path d="M0 0 C0 4.29908251 -1.7148681 6.37067287 -4 10 C-4.99 10.495 -4.99 10.495 -6 11 C-6.72693904 12.97888961 -7.39816251 14.97954558 -8 17 C-8.33 17 -8.66 17 -9 17 C-9 9.8521004 -6.61336781 6.78403118 -1.71484375 1.6875 C-1.14894531 1.130625 -0.58304688 0.57375 0 0 Z " fill="#961175" transform="translate(58,93)"/>
<path d="M0 0 C0.556875 0.226875 1.11375 0.45375 1.6875 0.6875 C-1.39249946 4.35980705 -3.5607602 5.25552365 -8.3125 5.6875 C-7.3125 2.6875 -7.3125 2.6875 -5 0.9375 C-2.3125 -0.3125 -2.3125 -0.3125 0 0 Z " fill="#A82494" transform="translate(55.3125,85.3125)"/>
<path d="M0 0 C1.46015291 0.28241641 2.91809793 0.57626614 4.375 0.875 C5.18710938 1.03742188 5.99921875 1.19984375 6.8359375 1.3671875 C9 2 9 2 11 4 C10.67 4.99 10.34 5.98 10 7 C5.56541027 5.6062718 3.12621626 3.39417765 0 0 Z " fill="#A9C843" transform="translate(85,80)"/>
<path d="M0 0 C1.05532187 2.72570863 1.02467991 3.92032559 0.14453125 6.76171875 C-0.29503906 7.72722656 -0.73460938 8.69273438 -1.1875 9.6875 C-1.61417969 10.66074219 -2.04085937 11.63398437 -2.48046875 12.63671875 C-4 15 -4 15 -6.17578125 15.83203125 C-6.77777344 15.88746094 -7.37976563 15.94289063 -8 16 C-7.67386719 15.43152344 -7.34773438 14.86304687 -7.01171875 14.27734375 C-4.36824701 9.60643056 -2.0115125 4.97584671 0 0 Z " fill="#085318" transform="translate(100,56)"/>
<path d="M0 0 C0.33 0.66 0.66 1.32 1 2 C-2.96 2 -6.92 2 -11 2 C-10.67 1.01 -10.34 0.02 -10 -1 C-6.02972626 -2.32342458 -3.88343142 -1.36639254 0 0 Z " fill="#74124B" transform="translate(74,150)"/>
<path d="M0 0 C3.375 -0.125 3.375 -0.125 7 0 C7.66 0.66 8.32 1.32 9 2 C9.33 1.34 9.66 0.68 10 0 C10 0.66 10 1.32 10 2 C11.65 2.33 13.3 2.66 15 3 C15 3.33 15 3.66 15 4 C12.36 4.33 9.72 4.66 7 5 C7 4.34 7 3.68 7 3 C5.824375 2.814375 5.824375 2.814375 4.625 2.625 C2 2 2 2 0 0 Z " fill="#831968" transform="translate(47,148)"/>
<path d="M0 0 C1.42281643 2.84563285 0.57172876 4.40435414 -0.25 7.4375 C-0.62898438 8.88962891 -0.62898438 8.88962891 -1.015625 10.37109375 C-1.99880962 12.99682093 -2.86867396 14.23387309 -5 16 C-5.99 15.67 -6.98 15.34 -8 15 C-7.34 15 -6.68 15 -6 15 C-5.896875 14.484375 -5.79375 13.96875 -5.6875 13.4375 C-4.36367299 8.74393153 -2.24628072 4.31977061 0 0 Z " fill="#2F9506" transform="translate(128,48)"/>
<path d="M0 0 C0.66 0 1.32 0 2 0 C3.00496852 3.01490557 3.10335303 5.04181692 3.0625 8.1875 C3.05347656 9.08855469 3.04445313 9.98960938 3.03515625 10.91796875 C3.02355469 11.60503906 3.01195313 12.29210938 3 13 C2.67 12.34 2.34 11.68 2 11 C1.34 11 0.68 11 0 11 C0 7.37 0 3.74 0 0 Z " fill="#34A6A6" transform="translate(81,49)"/>
<path d="M0 0 C0.33 0 0.66 0 1 0 C1 3.3 1 6.6 1 10 C-0.65 9.67 -2.3 9.34 -4 9 C-3.67 7.02 -3.34 5.04 -3 3 C-2.01 3 -1.02 3 0 3 C0 2.01 0 1.02 0 0 Z " fill="#33898D" transform="translate(17,35)"/>
<path d="M0 0 C0.556875 0.28875 1.11375 0.5775 1.6875 0.875 C4.08494645 2.0413253 6.51596939 3.0339881 9 4 C9 4.66 9 5.32 9 6 C11.31 6.66 13.62 7.32 16 8 C14.3203125 8.671875 14.3203125 8.671875 12 9 C9.4921875 7.890625 9.4921875 7.890625 6.875 6.25 C6.00617187 5.71890625 5.13734375 5.1878125 4.2421875 4.640625 C2 3 2 3 0 0 Z " fill="#B951A1" transform="translate(38,143)"/>
<path d="M0 0 C0.66 0 1.32 0 2 0 C1.91214662 1.41777182 1.80395353 2.83429039 1.6875 4.25 C1.62949219 5.03890625 1.57148438 5.8278125 1.51171875 6.640625 C1 9 1 9 -2 13 C-2 9.37 -2 5.74 -2 2 C-1.34 2 -0.68 2 0 2 C0 1.34 0 0.68 0 0 Z " fill="#D4A253" transform="translate(147,112)"/>
<path d="M0 0 C-0.33 0.66 -0.66 1.32 -1 2 C-3.0625 2.625 -3.0625 2.625 -5 3 C-5 3.66 -5 4.32 -5 5 C-6.98 5.66 -8.96 6.32 -11 7 C-8.87296567 0.78251503 -6.45381515 -0.28683623 0 0 Z " fill="#2F0852" transform="translate(57,80)"/>
<path d="M0 0 C3.91402949 1.26941497 5.79072873 2.51167694 8 6 C6.1875 6.6875 6.1875 6.6875 4 7 C1.81974318 5.4657452 1.11209475 4.35666511 0.3125 1.8125 C0.209375 1.214375 0.10625 0.61625 0 0 Z " fill="#7B4E02" transform="translate(90,99)"/>
<path d="M0 0 C0.66 0 1.32 0 2 0 C3.61949011 2.57213134 4.04408751 3.67669159 3.625 6.75 C3.41875 7.4925 3.2125 8.235 3 9 C2.01 8.34 1.02 7.68 0 7 C-0.1875 3.375 -0.1875 3.375 0 0 Z " fill="#EDD30E" transform="translate(156,80)"/>
<path d="M0 0 C0 0.66 0 1.32 0 2 C-0.99 2.33 -1.98 2.66 -3 3 C-3.99 4.0209375 -3.99 4.0209375 -5 5.0625 C-7 7 -7 7 -10 7 C-10 6.01 -10 5.02 -10 4 C-8.71086513 3.32845067 -7.41859796 2.66291141 -6.125 2 C-5.40570313 1.62875 -4.68640625 1.2575 -3.9453125 0.875 C-2 0 -2 0 0 0 Z " fill="#749A21" transform="translate(120,72)"/>
<path d="M0 0 C1.65 0.33 3.3 0.66 5 1 C3.02 3.31 1.04 5.62 -1 8 C-1.66 7.67 -2.32 7.34 -3 7 C-2.690625 6.401875 -2.38125 5.80375 -2.0625 5.1875 C-0.89790296 2.91043228 -0.89790296 2.91043228 0 0 Z " fill="#AA4A39" transform="translate(113,142)"/>
<path d="M0 0 C2.22825644 2.22825644 2.69239369 3.65761628 3.625 6.625 C3.88539062 7.44226563 4.14578125 8.25953125 4.4140625 9.1015625 C4.60742188 9.72804687 4.80078125 10.35453125 5 11 C2.5625 10.3125 2.5625 10.3125 0 9 C-1.21537818 5.70111637 -1.10272046 3.30816138 0 0 Z " fill="#711431" transform="translate(60,130)"/>
<path d="M0 0 C0.33 0 0.66 0 1 0 C0.54996653 5.62541841 -0.68441485 8.61487125 -4 13 C-5 10 -5 10 -4.0625 7.8125 C-3.711875 7.214375 -3.36125 6.61625 -3 6 C-2.34 6 -1.68 6 -1 6 C-1.020625 5.195625 -1.04125 4.39125 -1.0625 3.5625 C-1 1 -1 1 0 0 Z " fill="#F4E83B" transform="translate(159,90)"/>
<path d="M0 0 C2.60018816 3.90028225 2.15085514 7.47434569 2 12 C1.34 12 0.68 12 0 12 C0 10.35 0 8.7 0 7 C-0.66 6.67 -1.32 6.34 -2 6 C-1.34 4.02 -0.68 2.04 0 0 Z " fill="#B9751A" transform="translate(80,84)"/>
<path d="M0 0 C4.26086957 6.39130435 4.26086957 6.39130435 3.625 10.3125 C3.41875 10.869375 3.2125 11.42625 3 12 C0.53226147 8.35203869 -0.60004679 5.39948529 -1 1 C-0.67 0.67 -0.34 0.34 0 0 Z " fill="#A7660E" transform="translate(82,87)"/>
<path d="M0 0 C0.99 0 1.98 0 3 0 C3 0.66 3 1.32 3 2 C4.32 2.33 5.64 2.66 7 3 C6.01 3.66 5.02 4.32 4 5 C4.66 6.65 5.32 8.3 6 10 C5.34 10 4.68 10 4 10 C0 3.375 0 3.375 0 0 Z " fill="#676BA9" transform="translate(3,86)"/>
<path d="M0 0 C4.95696581 1.23924145 7.11658466 2.78577758 10 7 C4.5388601 6.03108808 4.5388601 6.03108808 2 5 C0.5 2.375 0.5 2.375 0 0 Z " fill="#40BC3F" transform="translate(114,11)"/>
<path d="M0 0 C0.99 0.33 1.98 0.66 3 1 C3 1.66 3 2.32 3 3 C4.175625 2.9071875 4.175625 2.9071875 5.375 2.8125 C6.674375 2.9053125 6.674375 2.9053125 8 3 C8.99 4.485 8.99 4.485 10 6 C3.52443609 5.38909774 3.52443609 5.38909774 1.0625 3.5625 C0 2 0 2 0 0 Z " fill="#9E6002" transform="translate(100,114)"/>
<path d="M0 0 C1.32 0.33 2.64 0.66 4 1 C1.36 3.97 -1.28 6.94 -4 10 C-4.66 9.34 -5.32 8.68 -6 8 C-4.7934375 7.13375 -4.7934375 7.13375 -3.5625 6.25 C-1.02133261 4.01873107 -0.34879632 3.25543229 0 0 Z " fill="#310953" transform="translate(36,88)"/>
<path d="M0 0 C1.65 0 3.3 0 5 0 C4.67 0.99 4.34 1.98 4 3 C3.01 3 2.02 3 1 3 C0.34 4.32 -0.32 5.64 -1 7 C-1.66 6.67 -2.32 6.34 -3 6 C-2.01 4.02 -1.02 2.04 0 0 Z " fill="#801748" transform="translate(75,80)"/>
<path d="M0 0 C0.75 1.6875 0.75 1.6875 1 4 C-0.80447147 6.61337248 -2.7582981 8.7582981 -5 11 C-4.54663921 6.12637153 -3.2910841 3.60957611 0 0 Z " fill="#ABD732" transform="translate(139,57)"/>
<path d="M0 0 C6.625 0.75 6.625 0.75 10 3 C6.06329512 4.31223496 3.87511856 3.24296256 0 2 C0 1.34 0 0.68 0 0 Z " fill="#714301" transform="translate(109,112)"/>
<path d="M0 0 C0.33 0.99 0.66 1.98 1 3 C1.66 3 2.32 3 3 3 C3.66 5.31 4.32 7.62 5 10 C3.68 9.67 2.36 9.34 1 9 C0.67 6.03 0.34 3.06 0 0 Z " fill="#6A1803" transform="translate(77,106)"/>
<path d="M0 0 C1.98 0.99 1.98 0.99 4 2 C3.34 4.31 2.68 6.62 2 9 C1.34 8.67 0.68 8.34 0 8 C0 5.36 0 2.72 0 0 Z " fill="#2B6665" transform="translate(80,70)"/>
<path d="M0 0 C0.99 0.495 0.99 0.495 2 1 C2.625 3.5625 2.625 3.5625 3 6 C3.66 6 4.32 6 5 6 C5.33 7.32 5.66 8.64 6 10 C5.01 10 4.02 10 3 10 C0 3.375 0 3.375 0 0 Z " fill="#238287" transform="translate(78,62)"/>
<path d="M0 0 C0.99 0.99 1.98 1.98 3 3 C3 3.66 3 4.32 3 5 C3.66 5 4.32 5 5 5 C5 5.66 5 6.32 5 7 C5.66 7.33 6.32 7.66 7 8 C6.01 8.495 6.01 8.495 5 9 C4.01 10.485 4.01 10.485 3 12 C2.01 8.04 1.02 4.08 0 0 Z " fill="#74CF49" transform="translate(127,22)"/>
<path d="M0 0 C0.66 0.99 1.32 1.98 2 3 C5.58357241 3.25015873 5.58357241 3.25015873 9 3 C8.67 3.66 8.34 4.32 8 5 C4.7 5 1.4 5 -2 5 C-1 1 -1 1 0 0 Z " fill="#224743" transform="translate(48,13)"/>
<path d="M0 0 C0.66 0.33 1.32 0.66 2 1 C1.25 2.9375 1.25 2.9375 0 5 C-2.125 5.75 -2.125 5.75 -4 6 C-3.67 4.35 -3.34 2.7 -3 1 C-2.01 0.67 -1.02 0.34 0 0 Z " fill="#8D220E" transform="translate(111,144)"/>
<path d="M0 0 C0.99 0 1.98 0 3 0 C2.34 2.64 1.68 5.28 1 8 C0.34 8 -0.32 8 -1 8 C-1.04241723 5.66705225 -1.04092937 3.33297433 -1 1 C-0.67 0.67 -0.34 0.34 0 0 Z " fill="#F0E117" transform="translate(157,88)"/>
<path d="M0 0 C0.33 0 0.66 0 1 0 C1.3125 2.3125 1.3125 2.3125 1 5 C-1.375 6.875 -1.375 6.875 -4 8 C-4.66 7.67 -5.32 7.34 -6 7 C-5.02433888 5.83040013 -4.044375 4.66438823 -3.0625 3.5 C-2.51722656 2.8503125 -1.97195312 2.200625 -1.41015625 1.53125 C-0.71212891 0.77328125 -0.71212891 0.77328125 0 0 Z " fill="#A4A504" transform="translate(150,71)"/>
<path d="M0 0 C1.32 0 2.64 0 4 0 C4 0.66 4 1.32 4 2 C2.73392393 2.53229326 1.46189588 3.05044544 0.1875 3.5625 C-0.52019531 3.85253906 -1.22789063 4.14257812 -1.95703125 4.44140625 C-4 5 -4 5 -7 4 C-6.030625 3.525625 -5.06125 3.05125 -4.0625 2.5625 C-1.19522563 1.29806053 -1.19522563 1.29806053 0 0 Z " fill="#EBAA3B" transform="translate(129,136)"/>
<path d="M0 0 C0 3.86695678 -1.41909971 6.5088452 -3 10 C-3.66 10 -4.32 10 -5 10 C-4.67 8.35 -4.34 6.7 -4 5 C-3.34 5 -2.68 5 -2 5 C-1.7834375 4.0409375 -1.7834375 4.0409375 -1.5625 3.0625 C-1 1 -1 1 0 0 Z " fill="#860C65" transform="translate(56,98)"/>
<path d="M0 0 C4 1 4 1 5.3125 2.8125 C6 5 6 5 5 9 C3.35 6.03 1.7 3.06 0 0 Z " fill="#135183" transform="translate(70,59)"/>
<path d="M0 0 C0.66 0 1.32 0 2 0 C1.60196439 2.88575819 1.20990931 3.82189513 -1.0625 5.75 C-1.701875 6.1625 -2.34125 6.575 -3 7 C-2.25 2.25 -2.25 2.25 0 0 Z " fill="#B22B17" transform="translate(68,93)"/>
<path d="M0 0 C0.66 0 1.32 0 2 0 C1.34 3.3 0.68 6.6 0 10 C-2 6 -2 6 -1.125 2.75 C-0.75375 1.8425 -0.3825 0.935 0 0 Z " fill="#7C2502" transform="translate(78,84)"/>
<path d="M0 0 C0.33 0.99 0.66 1.98 1 3 C0.34 3 -0.32 3 -1 3 C-1.28875 3.639375 -1.5775 4.27875 -1.875 4.9375 C-3 7 -3 7 -5 8 C-4.1875 5.5625 -4.1875 5.5625 -3 3 C-2.01 2.67 -1.02 2.34 0 2 C0 1.34 0 0.68 0 0 Z M-6 8 C-5.67 8.99 -5.34 9.98 -5 11 C-5.66 10.67 -6.32 10.34 -7 10 C-6.67 9.34 -6.34 8.68 -6 8 Z " fill="#CDB203" transform="translate(149,82)"/>
<path d="M0 0 C2 2 2 2 2.1953125 3.9453125 C2.13020833 5.96354167 2.06510417 7.98177083 2 10 C1.34 9.67 0.68 9.34 0 9 C-1.28571429 2.57142857 -1.28571429 2.57142857 0 0 Z " fill="#EBDA2D" transform="translate(158,74)"/>
<path d="M0 0 C-0.66 1.32 -1.32 2.64 -2 4 C-3.98 4 -5.96 4 -8 4 C-6.27302455 0.54604909 -3.70696841 0 0 0 Z " fill="#85AD24" transform="translate(124,72)"/>
<path d="M0 0 C0.66 0.33 1.32 0.66 2 1 C0.68 2.65 -0.64 4.3 -2 6 C-3.32 5.67 -4.64 5.34 -6 5 C-5.34 5 -4.68 5 -4 5 C-3.67 4.01 -3.34 3.02 -3 2 C-2.01 1.34 -1.02 0.68 0 0 Z " fill="#0E5418" transform="translate(90,72)"/>
<path d="M0 0 C1.98 0 3.96 0 6 0 C6 1.65 6 3.3 6 5 C4.68 4.34 3.36 3.68 2 3 C2 2.34 2 1.68 2 1 C1.34 0.67 0.68 0.34 0 0 Z " fill="#153377" transform="translate(74,72)"/>
<path d="M0 0 C1 2 1 2 0.25 4.5625 C-1 7 -1 7 -4 8 C-3.42415568 5.61435923 -2.77772405 3.33317216 -2 1 C-1.34 0.67 -0.68 0.34 0 0 Z " fill="#13432F" transform="translate(90,67)"/>
<path d="M0 0 C0.66 0 1.32 0 2 0 C0.87548273 2.9719385 -0.22293791 5.33440687 -2 8 C-2.66 8 -3.32 8 -4 8 C-3.40312566 4.65750371 -2.26396123 2.53563658 0 0 Z " fill="#8AAC27" transform="translate(128,64)"/>
<path d="M0 0 C0.33 0.66 0.66 1.32 1 2 C1.66 2.33 2.32 2.66 3 3 C2.34 4.65 1.68 6.3 1 8 C0.01 7.01 -0.98 6.02 -2 5 C-1.34 3.35 -0.68 1.7 0 0 Z " fill="#3D51B2" transform="translate(5,57)"/>
<path d="M0 0 C2.475 0.99 2.475 0.99 5 2 C4.01 3.485 4.01 3.485 3 5 C0.525 4.01 0.525 4.01 -2 3 C-1.34 2.67 -0.68 2.34 0 2 C0 1.34 0 0.68 0 0 Z " fill="#BB3D33" transform="translate(81,151)"/>
<path d="M0 0 C0 4.24645065 -1.81750806 6.38524772 -4 10 C-4.33 10 -4.66 10 -5 10 C-5.3125 7.8125 -5.3125 7.8125 -5 5 C-2.5 2.1875 -2.5 2.1875 0 0 Z " fill="#7C0935" transform="translate(67,90)"/>
<path d="M0 0 C2.475 0.495 2.475 0.495 5 1 C3.515 3.475 3.515 3.475 2 6 C1.34 5.67 0.68 5.34 0 5 C0 3.35 0 1.7 0 0 Z " fill="#829036" transform="translate(82,78)"/>
<path d="M0 0 C0.33 0.66 0.66 1.32 1 2 C0.0625 4.625 0.0625 4.625 -1 7 C-2.32 7 -3.64 7 -5 7 C-3.70700306 4.11562221 -2.34058637 2.12780579 0 0 Z " fill="#41A3AA" transform="translate(24,24)"/>
<path d="M0 0 C2.97 0.495 2.97 0.495 6 1 C6 1.66 6 2.32 6 3 C5.01 3 4.02 3 3 3 C3.33 3.66 3.66 4.32 4 5 C2.68 4.67 1.36 4.34 0 4 C0 2.68 0 1.36 0 0 Z " fill="#BF3F34" transform="translate(75,148)"/>
<path d="M0 0 C-1.65 1.32 -3.3 2.64 -5 4 C-5.33 3.34 -5.66 2.68 -6 2 C-8.02463255 1.34786708 -8.02463255 1.34786708 -10 1 C-6.61981469 -0.04005702 -3.5219721 -0.08004482 0 0 Z " fill="#CE7D2A" transform="translate(124,139)"/>
<path d="M0 0 C0.99 0.33 1.98 0.66 3 1 C3 2.65 3 4.3 3 6 C2.67 5.34 2.34 4.68 2 4 C-0.02463255 3.34786708 -0.02463255 3.34786708 -2 3 C-1.34 2.01 -0.68 1.02 0 0 Z " fill="#B26703" transform="translate(142,116)"/>
<path d="M0 0 C0 0.99 0 1.98 0 3 C-2.64 3.33 -5.28 3.66 -8 4 C-8 3.34 -8 2.68 -8 2 C-2.25 0 -2.25 0 0 0 Z " fill="#A61F90" transform="translate(72,80)"/>
<path d="M0 0 C0.33 0 0.66 0 1 0 C1.33 2.31 1.66 4.62 2 7 C-0.475 8.485 -0.475 8.485 -3 10 C-2.01 6.7 -1.02 3.4 0 0 Z " fill="#D4B709" transform="translate(154,71)"/>
<path d="M0 0 C0.99 0 1.98 0 3 0 C2.1875 2.4375 2.1875 2.4375 1 5 C0.01 5.33 -0.98 5.66 -2 6 C-1.49396008 3.83125748 -1.00016187 2.00032373 0 0 Z " fill="#145431" transform="translate(92,66)"/>
<path d="M0 0 C0.33 0 0.66 0 1 0 C1.1875 2.375 1.1875 2.375 1 5 C0.01 5.66 -0.98 6.32 -2 7 C-1.125 1.125 -1.125 1.125 0 0 Z M-4 7 C-3.01 7.495 -3.01 7.495 -2 8 C-2.99 8.495 -2.99 8.495 -4 9 C-4 8.34 -4 7.68 -4 7 Z " fill="#069305" transform="translate(112,53)"/>
<path d="M0 0 C0 1.98 0 3.96 0 6 C-1.32 5.34 -2.64 4.68 -4 4 C-4 3.01 -4 2.02 -4 1 C-1 0 -1 0 0 0 Z " fill="#042B26" transform="translate(82,36)"/>
<path d="M0 0 C2.375 0.25 2.375 0.25 5 1 C6.3125 3.0625 6.3125 3.0625 7 5 C6.01 6.485 6.01 6.485 5 8 C4.9175 7.05125 4.835 6.1025 4.75 5.125 C4.34925077 1.89538209 4.34925077 1.89538209 1.9375 0.625 C1.298125 0.41875 0.65875 0.2125 0 0 Z " fill="#B3D54F" transform="translate(132,28)"/>
<path d="M0 0 C2.475 0.495 2.475 0.495 5 1 C4.67 2.32 4.34 3.64 4 5 C2.68 4.34 1.36 3.68 0 3 C0 2.01 0 1.02 0 0 Z " fill="#27A6AB" transform="translate(64,27)"/>
<path d="M0 0 C4.75 0.75 4.75 0.75 7 3 C5.02 3.33 3.04 3.66 1 4 C0.67 2.68 0.34 1.36 0 0 Z " fill="#487163" transform="translate(79,5)"/>
</svg>
